<svg width="341" height="337" viewBox="0 0 341 337" fill="none" xmlns="http://www.w3.org/2000/svg">
<g filter="url(#filter0_d_25_255)">
<g clip-path="url(#clip0_25_255)">
<rect x="4.53516" width="332.346" height="329" rx="28.9966" fill="#FFF4E2"/>
<path d="M4.53516 265.431H330.959C334.23 265.431 336.881 268.082 336.881 271.352V329H10.4567C7.18633 329 4.53516 326.349 4.53516 323.078V265.431Z" fill="url(#paint0_linear_25_255)"/>
<path d="M-294.353 385.878L-294.353 -381.417L1069.73 -381.417L1069.73 385.878L-294.353 385.878Z" fill="url(#paint1_angular_25_255)"/>
<path opacity="0.4" d="M484.095 258.739C484.095 388.086 260.901 492.942 -14.4237 492.942C-289.748 492.942 -512.942 388.086 -512.942 258.739C-512.942 129.392 -289.748 24.5356 -14.4237 24.5356C260.901 24.5356 484.095 129.392 484.095 258.739ZM-453.393 258.739C-453.393 372.635 -256.86 464.966 -14.4237 464.966C228.012 464.966 424.546 372.635 424.546 258.739C424.546 144.843 228.012 52.5118 -14.4237 52.5118C-256.86 52.5118 -453.393 144.843 -453.393 258.739Z" fill="url(#paint2_radial_25_255)" fill-opacity="0.6"/>
<path opacity="0.4" d="M354.725 320.636C354.725 434.892 156.746 527.515 -87.4731 527.515C-331.692 527.515 -529.671 434.892 -529.671 320.636C-529.671 206.379 -331.692 113.756 -87.4731 113.756C156.746 113.756 354.725 206.379 354.725 320.636ZM-476.85 320.636C-476.85 421.244 -302.52 502.803 -87.4731 502.803C127.574 502.803 301.904 421.244 301.904 320.636C301.904 220.027 127.574 138.468 -87.4731 138.468C-302.52 138.468 -476.85 220.027 -476.85 320.636Z" fill="url(#paint3_radial_25_255)" fill-opacity="0.6"/>
<path opacity="0.4" d="M537.627 320.636C537.627 447.211 318.677 549.82 48.5878 549.82C-221.501 549.82 -440.451 447.211 -440.451 320.636C-440.451 194.06 -221.501 91.4508 48.5878 91.4508C318.677 91.4508 537.627 194.06 537.627 320.636ZM-382.034 320.636C-382.034 432.091 -189.238 522.444 48.5878 522.444C286.414 522.444 479.21 432.091 479.21 320.636C479.21 209.18 286.414 118.827 48.5878 118.827C-189.238 118.827 -382.034 209.18 -382.034 320.636Z" fill="url(#paint4_radial_25_255)" fill-opacity="0.6"/>
<path opacity="0.6" d="M-40.7022 287.951C-27.0595 265.535 -8.75489 246.312 12.9802 231.576C34.7153 216.84 59.3768 206.933 85.3059 202.52C111.235 198.107 137.83 199.291 163.303 205.992C188.776 212.694 212.535 224.757 232.982 241.371L226.437 249.408C207.143 233.731 184.724 222.348 160.687 216.025C136.651 209.701 111.556 208.584 87.0892 212.748C62.6224 216.912 39.3516 226.261 18.8423 240.166C-1.667 254.071 -18.9393 272.209 -31.8126 293.361L-40.7022 287.951Z" fill="url(#paint5_radial_25_255)" fill-opacity="0.6"/>
<path d="M76.3594 271.523L21.5293 315.327H266.371L326.821 271.523L76.3594 271.523Z" fill="#0A0A0A" stroke="#0A0A0A" stroke-width="1.11525" stroke-linejoin="round"/>
<path d="M73.8633 265.721L19.0332 309.525H265.255L325.705 265.721H73.8633Z" fill="#FAE5C3" stroke="#0A0A0A" stroke-width="1.11525" stroke-linejoin="round"/>
<path d="M118.596 285.068H115.338C115.245 284.534 115.073 284.06 114.824 283.648C114.574 283.23 114.263 282.875 113.891 282.585C113.52 282.295 113.096 282.077 112.619 281.932C112.149 281.78 111.64 281.705 111.094 281.705C110.124 281.705 109.265 281.949 108.515 282.437C107.766 282.919 107.179 283.628 106.755 284.563C106.331 285.492 106.119 286.628 106.119 287.97C106.119 289.335 106.331 290.485 106.755 291.42C107.185 292.349 107.772 293.052 108.515 293.528C109.265 293.999 110.121 294.234 111.086 294.234C111.62 294.234 112.12 294.164 112.584 294.025C113.055 293.88 113.476 293.668 113.848 293.389C114.225 293.11 114.542 292.767 114.797 292.361C115.059 291.954 115.239 291.49 115.338 290.967L118.596 290.984C118.474 291.832 118.21 292.628 117.803 293.372C117.403 294.115 116.877 294.771 116.226 295.341C115.576 295.904 114.815 296.346 113.944 296.665C113.072 296.979 112.105 297.136 111.042 297.136C109.474 297.136 108.074 296.773 106.843 296.046C105.611 295.32 104.641 294.272 103.932 292.901C103.224 291.53 102.869 289.886 102.869 287.97C102.869 286.047 103.227 284.403 103.941 283.038C104.656 281.667 105.629 280.619 106.86 279.893C108.091 279.167 109.485 278.804 111.042 278.804C112.035 278.804 112.959 278.943 113.813 279.222C114.667 279.501 115.428 279.91 116.096 280.45C116.764 280.985 117.313 281.641 117.742 282.419C118.178 283.192 118.463 284.075 118.596 285.068ZM127.255 297.153C125.948 297.153 124.815 296.865 123.857 296.29C122.898 295.715 122.155 294.911 121.626 293.877C121.103 292.843 120.842 291.635 120.842 290.252C120.842 288.87 121.103 287.659 121.626 286.619C122.155 285.579 122.898 284.772 123.857 284.197C124.815 283.622 125.948 283.334 127.255 283.334C128.562 283.334 129.694 283.622 130.653 284.197C131.611 284.772 132.352 285.579 132.875 286.619C133.403 287.659 133.667 288.87 133.667 290.252C133.667 291.635 133.403 292.843 132.875 293.877C132.352 294.911 131.611 295.715 130.653 296.29C129.694 296.865 128.562 297.153 127.255 297.153ZM127.272 294.626C127.981 294.626 128.573 294.432 129.05 294.042C129.526 293.647 129.88 293.119 130.113 292.457C130.351 291.795 130.47 291.057 130.47 290.244C130.47 289.425 130.351 288.684 130.113 288.022C129.88 287.354 129.526 286.822 129.05 286.427C128.573 286.032 127.981 285.835 127.272 285.835C126.546 285.835 125.942 286.032 125.46 286.427C124.984 286.822 124.626 287.354 124.388 288.022C124.156 288.684 124.04 289.425 124.04 290.244C124.04 291.057 124.156 291.795 124.388 292.457C124.626 293.119 124.984 293.647 125.46 294.042C125.942 294.432 126.546 294.626 127.272 294.626ZM136.344 296.892V283.509H139.499V296.892H136.344ZM137.93 281.609C137.431 281.609 137.001 281.444 136.641 281.112C136.281 280.776 136.101 280.372 136.101 279.901C136.101 279.425 136.281 279.021 136.641 278.69C137.001 278.353 137.431 278.185 137.93 278.185C138.436 278.185 138.865 278.353 139.22 278.69C139.58 279.021 139.76 279.425 139.76 279.901C139.76 280.372 139.58 280.776 139.22 281.112C138.865 281.444 138.436 281.609 137.93 281.609ZM145.896 289.05V296.892H142.742V283.509H145.757V285.783H145.913C146.221 285.033 146.712 284.438 147.386 283.996C148.066 283.555 148.905 283.334 149.904 283.334C150.828 283.334 151.632 283.532 152.317 283.927C153.009 284.322 153.543 284.894 153.921 285.643C154.304 286.393 154.493 287.302 154.487 288.37V296.892H151.333V288.858C151.333 287.964 151.101 287.264 150.636 286.758C150.177 286.253 149.541 286 148.728 286C148.176 286 147.685 286.122 147.255 286.366C146.831 286.605 146.497 286.95 146.253 287.403C146.015 287.856 145.896 288.405 145.896 289.05ZM157.833 296.892V279.048H160.987V285.722H161.118C161.28 285.396 161.51 285.051 161.806 284.685C162.102 284.313 162.503 283.996 163.008 283.735C163.514 283.468 164.158 283.334 164.942 283.334C165.976 283.334 166.909 283.599 167.739 284.127C168.576 284.65 169.238 285.425 169.726 286.454C170.22 287.476 170.466 288.73 170.466 290.218C170.466 291.687 170.225 292.936 169.743 293.964C169.261 294.992 168.605 295.776 167.774 296.317C166.944 296.857 166.003 297.127 164.951 297.127C164.184 297.127 163.548 296.999 163.043 296.743C162.538 296.488 162.131 296.18 161.823 295.82C161.521 295.454 161.286 295.108 161.118 294.783H160.935V296.892H157.833ZM160.926 290.2C160.926 291.066 161.048 291.824 161.292 292.474C161.542 293.125 161.899 293.633 162.363 293.999C162.834 294.359 163.403 294.539 164.071 294.539C164.768 294.539 165.352 294.353 165.822 293.981C166.293 293.604 166.647 293.09 166.885 292.439C167.129 291.783 167.251 291.037 167.251 290.2C167.251 289.369 167.132 288.632 166.894 287.987C166.656 287.342 166.302 286.837 165.831 286.471C165.361 286.105 164.774 285.922 164.071 285.922C163.397 285.922 162.825 286.099 162.355 286.454C161.884 286.808 161.527 287.304 161.283 287.943C161.045 288.582 160.926 289.335 160.926 290.2ZM176.999 297.162C176.151 297.162 175.387 297.011 174.708 296.709C174.034 296.401 173.499 295.948 173.104 295.349C172.715 294.751 172.521 294.013 172.521 293.136C172.521 292.381 172.66 291.757 172.939 291.263C173.218 290.769 173.598 290.374 174.08 290.078C174.562 289.782 175.105 289.558 175.709 289.407C176.319 289.25 176.95 289.137 177.6 289.067C178.384 288.986 179.02 288.913 179.508 288.85C179.996 288.78 180.351 288.675 180.571 288.536C180.798 288.391 180.911 288.167 180.911 287.865V287.813C180.911 287.156 180.717 286.648 180.327 286.288C179.938 285.928 179.378 285.748 178.646 285.748C177.873 285.748 177.26 285.916 176.807 286.253C176.36 286.59 176.058 286.988 175.901 287.447L172.956 287.029C173.189 286.215 173.572 285.536 174.106 284.99C174.641 284.438 175.294 284.026 176.067 283.753C176.839 283.474 177.693 283.334 178.628 283.334C179.273 283.334 179.915 283.41 180.554 283.561C181.193 283.712 181.777 283.962 182.305 284.31C182.834 284.653 183.258 285.12 183.577 285.713C183.903 286.305 184.065 287.046 184.065 287.935V296.892H181.033V295.053H180.929C180.737 295.425 180.467 295.773 180.118 296.099C179.776 296.418 179.343 296.677 178.82 296.874C178.303 297.066 177.696 297.162 176.999 297.162ZM177.818 294.844C178.451 294.844 179 294.719 179.465 294.469C179.929 294.214 180.287 293.877 180.536 293.459C180.792 293.04 180.92 292.585 180.92 292.091V290.514C180.821 290.595 180.653 290.671 180.414 290.74C180.182 290.81 179.921 290.871 179.63 290.923C179.34 290.976 179.052 291.022 178.768 291.063C178.483 291.103 178.236 291.138 178.027 291.167C177.557 291.231 177.136 291.336 176.764 291.481C176.392 291.626 176.099 291.829 175.884 292.091C175.669 292.346 175.561 292.677 175.561 293.084C175.561 293.665 175.773 294.103 176.197 294.4C176.621 294.696 177.162 294.844 177.818 294.844ZM197.814 287.046L194.939 287.36C194.858 287.069 194.715 286.796 194.512 286.541C194.314 286.285 194.047 286.079 193.71 285.922C193.373 285.765 192.961 285.687 192.473 285.687C191.817 285.687 191.265 285.829 190.818 286.114C190.376 286.398 190.158 286.767 190.164 287.22C190.158 287.609 190.301 287.926 190.591 288.17C190.887 288.414 191.375 288.614 192.055 288.771L194.338 289.259C195.604 289.532 196.545 289.965 197.161 290.557C197.782 291.15 198.096 291.925 198.102 292.884C198.096 293.726 197.849 294.469 197.361 295.114C196.879 295.753 196.208 296.253 195.348 296.613C194.489 296.973 193.501 297.153 192.386 297.153C190.748 297.153 189.429 296.81 188.43 296.125C187.431 295.434 186.836 294.472 186.644 293.241L189.72 292.945C189.859 293.549 190.156 294.005 190.609 294.313C191.062 294.62 191.651 294.774 192.377 294.774C193.127 294.774 193.728 294.62 194.181 294.313C194.64 294.005 194.869 293.624 194.869 293.171C194.869 292.788 194.721 292.471 194.425 292.221C194.134 291.972 193.681 291.78 193.066 291.646L190.783 291.167C189.499 290.9 188.549 290.45 187.934 289.817C187.318 289.178 187.013 288.37 187.019 287.395C187.013 286.57 187.237 285.855 187.69 285.251C188.149 284.641 188.785 284.171 189.598 283.84C190.417 283.503 191.361 283.334 192.43 283.334C193.998 283.334 195.232 283.668 196.133 284.336C197.039 285.004 197.599 285.908 197.814 287.046ZM206.627 297.153C205.286 297.153 204.127 296.874 203.151 296.317C202.181 295.753 201.434 294.957 200.912 293.929C200.389 292.895 200.127 291.678 200.127 290.278C200.127 288.902 200.389 287.694 200.912 286.654C201.44 285.608 202.178 284.795 203.125 284.214C204.072 283.628 205.184 283.334 206.462 283.334C207.287 283.334 208.065 283.468 208.797 283.735C209.535 283.996 210.185 284.403 210.749 284.955C211.318 285.507 211.765 286.21 212.09 287.063C212.416 287.911 212.578 288.922 212.578 290.096V291.063H201.609V288.937H209.555C209.549 288.333 209.418 287.795 209.163 287.325C208.907 286.849 208.55 286.474 208.091 286.201C207.638 285.928 207.109 285.791 206.505 285.791C205.861 285.791 205.294 285.948 204.806 286.262C204.318 286.57 203.938 286.976 203.665 287.482C203.398 287.981 203.261 288.53 203.255 289.128V290.984C203.255 291.763 203.398 292.431 203.682 292.988C203.967 293.54 204.365 293.964 204.876 294.26C205.387 294.551 205.985 294.696 206.671 294.696C207.13 294.696 207.545 294.632 207.917 294.504C208.289 294.371 208.611 294.176 208.884 293.92C209.157 293.665 209.363 293.348 209.503 292.971L212.448 293.302C212.262 294.08 211.907 294.76 211.385 295.341C210.868 295.916 210.205 296.363 209.398 296.682C208.591 296.996 207.667 297.153 206.627 297.153Z" fill="#0A0A0A"/>
<circle cx="54.7223" cy="264.315" r="33.4576" fill="#0052FF"/>
<path d="M54.764 275.468C48.5907 275.468 43.5905 270.477 43.5905 264.315C43.5905 258.154 48.5907 253.163 54.764 253.163C60.2949 253.163 64.8853 257.187 65.7699 262.457H77.0272C76.0774 251.007 66.4775 242.01 54.764 242.01C42.4266 242.01 32.417 252.001 32.417 264.315C32.417 276.63 42.4266 286.62 54.764 286.62C66.4775 286.62 76.0774 277.624 77.0272 266.174H65.7606C64.876 271.444 60.2949 275.468 54.764 275.468Z" fill="white"/>
<rect x="22.3799" y="17.8441" width="85.1492" height="26.7661" rx="13.3831" fill="#212121"/>
<path d="M44.6848 31.2272C44.6848 33.0019 43.9798 34.7039 42.7249 35.9588C41.47 37.2137 39.768 37.9187 37.9933 37.9187C36.2186 37.9187 34.5166 37.2137 33.2617 35.9588C32.0068 34.7039 31.3018 33.0019 31.3018 31.2272C31.3018 29.4525 32.0068 27.7505 33.2617 26.4955C34.5166 25.2406 36.2186 24.5356 37.9933 24.5356C39.768 24.5356 41.47 25.2406 42.7249 26.4955C43.9798 27.7505 44.6848 29.4525 44.6848 31.2272ZM39.2452 26.9689H37.5018C37.378 26.9689 37.2572 27.0067 37.1555 27.0771C37.0538 27.1475 36.9759 27.2473 36.9324 27.3631L35.5637 31.013C35.529 31.1052 35.5172 31.2044 35.5293 31.3021C35.5415 31.3998 35.5771 31.493 35.6332 31.5739C35.6893 31.6548 35.7643 31.7209 35.8515 31.7664C35.9388 31.812 36.0358 31.8357 36.1343 31.8355H37.0808L36.1403 34.6544C36.0909 34.8001 36.0964 34.9588 36.1559 35.1007C36.2153 35.2425 36.3246 35.3577 36.4631 35.4246C36.6017 35.4915 36.7598 35.5054 36.9079 35.4637C37.056 35.422 37.1837 35.3276 37.2669 35.1983L40.4606 30.2843C40.5163 30.1981 40.5478 30.0985 40.5517 29.996C40.5556 29.8934 40.5319 29.7917 40.483 29.7015C40.4341 29.6113 40.3618 29.5359 40.2738 29.4833C40.1857 29.4306 40.0851 29.4026 39.9825 29.4022H39.2099L39.8146 27.7902C39.849 27.6982 39.8606 27.5992 39.8484 27.5018C39.8362 27.4044 39.8006 27.3113 39.7447 27.2306C39.6887 27.1499 39.6141 27.084 39.5271 27.0384C39.4401 26.9928 39.3434 26.969 39.2452 26.9689Z" fill="#F3AFC6"/>
<path d="M58.4428 27.6162V35.7272H57.2151V28.844H57.1676L55.227 30.1113V28.939L57.2507 27.6162H58.4428ZM60.6369 35.7272V34.84L63.3815 31.9965C63.6745 31.6875 63.9161 31.4169 64.1062 31.1846C64.299 30.9496 64.4429 30.7265 64.5379 30.5153C64.633 30.304 64.6805 30.0796 64.6805 29.842C64.6805 29.5727 64.6171 29.3403 64.4904 29.145C64.3637 28.9469 64.1907 28.7951 63.9716 28.6895C63.7524 28.5813 63.5056 28.5271 63.231 28.5271C62.9405 28.5271 62.6871 28.5865 62.4706 28.7053C62.2541 28.8242 62.0877 28.9918 61.9716 29.2083C61.8554 29.4248 61.7973 29.6783 61.7973 29.9687H60.629C60.629 29.475 60.7425 29.0433 60.9696 28.6737C61.1966 28.304 61.5082 28.0176 61.9042 27.8143C62.3003 27.6083 62.7504 27.5053 63.2547 27.5053C63.7643 27.5053 64.2132 27.607 64.6013 27.8103C64.992 28.011 65.297 28.2855 65.5161 28.6341C65.7353 28.9799 65.8448 29.3707 65.8448 29.8063C65.8448 30.1073 65.7881 30.4017 65.6745 30.6895C65.5637 30.9773 65.3696 31.2981 65.0924 31.6519C64.8151 32.0031 64.4297 32.4295 63.9359 32.9311L62.324 34.6183V34.6777H65.9755V35.7272H60.6369ZM70.3003 35.8618C69.6746 35.8592 69.1399 35.6942 68.6963 35.3668C68.2528 35.0394 67.9135 34.5628 67.6785 33.9371C67.4435 33.3113 67.326 32.5575 67.326 31.6757C67.326 30.7964 67.4435 30.0453 67.6785 29.4222C67.9161 28.7991 68.2567 28.3238 68.7003 27.9964C69.1465 27.669 69.6799 27.5053 70.3003 27.5053C70.9208 27.5053 71.4528 27.6704 71.8964 28.0004C72.3399 28.3278 72.6792 28.803 72.9142 29.4261C73.1518 30.0466 73.2706 30.7964 73.2706 31.6757C73.2706 32.5602 73.1531 33.3153 72.9182 33.941C72.6832 34.5641 72.3439 35.0407 71.9003 35.3707C71.4568 35.6981 70.9234 35.8618 70.3003 35.8618ZM70.3003 34.8044C70.8495 34.8044 71.2785 34.5364 71.5875 34.0004C71.899 33.4645 72.0548 32.6895 72.0548 31.6757C72.0548 31.0024 71.9835 30.4334 71.8409 29.9687C71.701 29.5014 71.499 29.1476 71.235 28.9073C70.9736 28.6644 70.662 28.543 70.3003 28.543C69.7538 28.543 69.3247 28.8123 69.0132 29.3509C68.7016 29.8895 68.5445 30.6644 68.5419 31.6757C68.5419 32.3516 68.6119 32.9232 68.7518 33.3905C68.8944 33.8552 69.0964 34.2077 69.3577 34.448C69.6191 34.6856 69.9333 34.8044 70.3003 34.8044ZM77.4994 35.8618C76.8736 35.8592 76.339 35.6942 75.8954 35.3668C75.4518 35.0394 75.1126 34.5628 74.8776 33.9371C74.6426 33.3113 74.5251 32.5575 74.5251 31.6757C74.5251 30.7964 74.6426 30.0453 74.8776 29.4222C75.1152 28.7991 75.4558 28.3238 75.8994 27.9964C76.3456 27.669 76.8789 27.5053 77.4994 27.5053C78.1198 27.5053 78.6519 27.6704 79.0954 28.0004C79.539 28.3278 79.8783 28.803 80.1133 29.4261C80.3509 30.0466 80.4697 30.7964 80.4697 31.6757C80.4697 32.5602 80.3522 33.3153 80.1172 33.941C79.8822 34.5641 79.543 35.0407 79.0994 35.3707C78.6558 35.6981 78.1225 35.8618 77.4994 35.8618ZM77.4994 34.8044C78.0486 34.8044 78.4776 34.5364 78.7865 34.0004C79.0981 33.4645 79.2538 32.6895 79.2538 31.6757C79.2538 31.0024 79.1826 30.4334 79.04 29.9687C78.9 29.5014 78.6981 29.1476 78.434 28.9073C78.1726 28.6644 77.8611 28.543 77.4994 28.543C76.9528 28.543 76.5238 28.8123 76.2122 29.3509C75.9007 29.8895 75.7436 30.6644 75.7409 31.6757C75.7409 32.3516 75.8109 32.9232 75.9508 33.3905C76.0934 33.8552 76.2954 34.2077 76.5568 34.448C76.8182 34.6856 77.1324 34.8044 77.4994 34.8044ZM85.7885 27.6162L87.7291 30.7885H87.7925L89.7331 27.6162H91.1509L88.6242 31.6717L91.1668 35.7272H89.741L87.7925 32.5984H87.7291L85.7806 35.7272H84.3549L86.941 31.6717L84.3707 27.6162H85.7885ZM92.3648 35.7272V27.6162H95.2559C95.8869 27.6162 96.4097 27.7311 96.8242 27.9608C97.2388 28.1905 97.549 28.5047 97.7549 28.9034C97.9609 29.2994 98.0639 29.7456 98.0639 30.242C98.0639 30.741 97.9596 31.1899 97.751 31.5885C97.545 31.9846 97.2335 32.2988 96.8163 32.5311C96.4018 32.7608 95.8803 32.8757 95.252 32.8757H93.2638V31.838H95.1411C95.5397 31.838 95.8632 31.7694 96.1114 31.6321C96.3596 31.4922 96.5417 31.3021 96.6579 31.0618C96.7741 30.8215 96.8322 30.5483 96.8322 30.242C96.8322 29.9357 96.7741 29.6638 96.6579 29.4261C96.5417 29.1885 96.3582 29.0024 96.1074 28.8677C95.8592 28.7331 95.5318 28.6657 95.1252 28.6657H93.5886V35.7272H92.3648Z" fill="white"/>
<rect x="223.125" y="17.8441" width="95.8441" height="26.3831" rx="13.1915" fill="black" fill-opacity="0.25"/>
<path d="M236.168 35.6465C235.806 35.6413 235.45 35.5752 235.099 35.4485C234.75 35.3218 234.434 35.1106 234.148 34.8148C233.863 34.5191 233.635 34.1218 233.463 33.6228C233.294 33.1237 233.21 32.5006 233.21 31.7534C233.21 31.0458 233.28 30.4175 233.42 29.8683C233.562 29.3191 233.767 28.8557 234.034 28.4782C234.3 28.098 234.622 27.8089 235 27.6108C235.377 27.4128 235.801 27.3138 236.271 27.3138C236.754 27.3138 237.183 27.4089 237.558 27.599C237.933 27.7891 238.237 28.0518 238.469 28.3871C238.704 28.7224 238.853 29.1039 238.917 29.5316H237.709C237.627 29.1937 237.465 28.9178 237.222 28.7039C236.979 28.4901 236.662 28.3831 236.271 28.3831C235.677 28.3831 235.214 28.6419 234.881 29.1594C234.551 29.6769 234.385 30.3963 234.382 31.3178H234.441C234.581 31.0881 234.753 30.8927 234.956 30.7317C235.162 30.568 235.392 30.4425 235.645 30.3554C235.902 30.2656 236.171 30.2208 236.453 30.2208C236.923 30.2208 237.348 30.3356 237.729 30.5653C238.111 30.7924 238.416 31.1066 238.643 31.5079C238.871 31.9092 238.984 32.3686 238.984 32.8861C238.984 33.4036 238.867 33.8723 238.632 34.2921C238.399 34.7119 238.072 35.0446 237.649 35.2901C237.227 35.533 236.733 35.6518 236.168 35.6465ZM236.164 34.6168C236.476 34.6168 236.754 34.5403 237 34.3871C237.245 34.234 237.44 34.028 237.582 33.7693C237.725 33.5105 237.796 33.2214 237.796 32.902C237.796 32.5904 237.726 32.3066 237.586 32.0505C237.449 31.7944 237.259 31.5911 237.016 31.4406C236.775 31.2901 236.501 31.2148 236.192 31.2148C235.957 31.2148 235.739 31.2597 235.539 31.3495C235.34 31.4392 235.166 31.5633 235.016 31.7218C234.865 31.8802 234.746 32.0624 234.659 32.2683C234.575 32.4716 234.533 32.6868 234.533 32.9138C234.533 33.2175 234.603 33.4987 234.742 33.7574C234.885 34.0162 235.079 34.2247 235.325 34.3832C235.573 34.5389 235.853 34.6168 236.164 34.6168ZM241.613 34.4267L241.553 34.8584C241.514 35.1752 241.446 35.5053 241.351 35.8485C241.259 36.1944 241.163 36.5152 241.062 36.8109C240.965 37.1066 240.884 37.3416 240.821 37.5159H239.981C240.015 37.3522 240.063 37.1304 240.124 36.8505C240.184 36.5733 240.244 36.263 240.302 35.9198C240.36 35.5766 240.404 35.2267 240.433 34.8703L240.472 34.4267H241.613ZM243.099 33.9515V32.9614L246.604 27.4247H247.384V28.8821H246.889L244.382 32.8505V32.9138H249.186V33.9515H243.099ZM246.945 35.5356V33.6505L246.952 33.199V27.4247H248.113V35.5356H246.945ZM253.39 35.6703C252.764 35.6677 252.23 35.5026 251.786 35.1752C251.343 34.8479 251.003 34.3713 250.768 33.7455C250.533 33.1198 250.416 32.366 250.416 31.4841C250.416 30.6049 250.533 29.8538 250.768 29.2307C251.006 28.6075 251.347 28.1323 251.79 27.8049C252.236 27.4775 252.77 27.3138 253.39 27.3138C254.011 27.3138 254.543 27.4788 254.986 27.8089C255.43 28.1363 255.769 28.6115 256.004 29.2346C256.242 29.8551 256.36 30.6049 256.36 31.4841C256.36 32.3686 256.243 33.1237 256.008 33.7495C255.773 34.3726 255.434 34.8492 254.99 35.1792C254.547 35.5066 254.013 35.6703 253.39 35.6703ZM253.39 34.6129C253.939 34.6129 254.368 34.3449 254.677 33.8089C254.989 33.2729 255.145 32.498 255.145 31.4841C255.145 30.8109 255.073 30.2419 254.931 29.7772C254.791 29.3099 254.589 28.9561 254.325 28.7158C254.063 28.4729 253.752 28.3514 253.39 28.3514C252.844 28.3514 252.415 28.6208 252.103 29.1594C251.791 29.698 251.634 30.4729 251.632 31.4841C251.632 32.16 251.702 32.7317 251.842 33.199C251.984 33.6637 252.186 34.0162 252.448 34.2564C252.709 34.4941 253.023 34.6129 253.39 34.6129ZM257.765 35.5356V34.6485L260.51 31.8049C260.803 31.496 261.045 31.2254 261.235 30.993C261.427 30.7581 261.571 30.535 261.666 30.3237C261.761 30.1125 261.809 29.8881 261.809 29.6505C261.809 29.3812 261.746 29.1488 261.619 28.9534C261.492 28.7554 261.319 28.6036 261.1 28.498C260.881 28.3897 260.634 28.3356 260.359 28.3356C260.069 28.3356 259.816 28.395 259.599 28.5138C259.383 28.6326 259.216 28.8003 259.1 29.0168C258.984 29.2333 258.926 29.4868 258.926 29.7772H257.757C257.757 29.2835 257.871 28.8518 258.098 28.4821C258.325 28.1125 258.637 27.826 259.033 27.6227C259.429 27.4168 259.879 27.3138 260.383 27.3138C260.893 27.3138 261.342 27.4155 261.73 27.6188C262.121 27.8194 262.425 28.094 262.645 28.4425C262.864 28.7884 262.973 29.1792 262.973 29.6148C262.973 29.9158 262.917 30.2102 262.803 30.498C262.692 30.7858 262.498 31.1066 262.221 31.4604C261.944 31.8115 261.558 32.2379 261.064 32.7396L259.453 34.4267V34.4861H263.104V35.5356H257.765ZM267.667 35.5356V27.4247H270.638C271.213 27.4247 271.69 27.5198 272.067 27.7099C272.445 27.8973 272.728 28.1521 272.915 28.4742C273.102 28.7937 273.196 29.1541 273.196 29.5554C273.196 29.8934 273.134 30.1785 273.01 30.4109C272.886 30.6406 272.72 30.8254 272.511 30.9653C272.305 31.1026 272.078 31.2029 271.83 31.2663V31.3455C272.099 31.3587 272.362 31.4459 272.618 31.6069C272.877 31.7653 273.091 31.9911 273.26 32.2841C273.428 32.5772 273.513 32.9336 273.513 33.3535C273.513 33.768 273.415 34.1403 273.22 34.4703C273.027 34.7977 272.729 35.0578 272.325 35.2505C271.921 35.4406 271.405 35.5356 270.776 35.5356H267.667ZM268.891 34.4861H270.658C271.244 34.4861 271.663 34.3726 271.917 34.1455C272.17 33.9185 272.297 33.6346 272.297 33.294C272.297 33.0379 272.232 32.803 272.103 32.5891C271.974 32.3752 271.789 32.2049 271.549 32.0782C271.311 31.9515 271.028 31.8881 270.701 31.8881H268.891V34.4861ZM268.891 30.9336H270.531C270.805 30.9336 271.052 30.8808 271.271 30.7752C271.493 30.6696 271.669 30.5218 271.798 30.3317C271.93 30.1389 271.996 29.9118 271.996 29.6505C271.996 29.3151 271.879 29.034 271.644 28.8069C271.409 28.5798 271.048 28.4663 270.562 28.4663H268.891V30.9336ZM278.723 33.0129V29.4524H279.911V35.5356H278.747V34.4822H278.683C278.543 34.8069 278.319 35.0776 278.01 35.2941C277.704 35.5079 277.322 35.6149 276.865 35.6149C276.475 35.6149 276.129 35.529 275.828 35.3574C275.53 35.1832 275.295 34.9257 275.123 34.5851C274.954 34.2445 274.869 33.8234 274.869 33.3218V29.4524H276.054V33.1792C276.054 33.5937 276.168 33.9238 276.398 34.1693C276.628 34.4148 276.926 34.5376 277.293 34.5376C277.515 34.5376 277.735 34.4822 277.955 34.3713C278.176 34.2604 278.36 34.0927 278.505 33.8683C278.653 33.6439 278.726 33.3587 278.723 33.0129ZM281.502 35.5356V29.4524H282.686V35.5356H281.502ZM282.1 28.5138C281.894 28.5138 281.717 28.4452 281.569 28.3079C281.424 28.1679 281.352 28.0016 281.352 27.8089C281.352 27.6135 281.424 27.4471 281.569 27.3099C281.717 27.1699 281.894 27.0999 282.1 27.0999C282.306 27.0999 282.482 27.1699 282.627 27.3099C282.775 27.4471 282.849 27.6135 282.849 27.8089C282.849 28.0016 282.775 28.1679 282.627 28.3079C282.482 28.4452 282.306 28.5138 282.1 28.5138ZM285.464 27.4247V35.5356H284.279V27.4247H285.464ZM289.334 35.6545C288.843 35.6545 288.404 35.529 288.019 35.2782C287.636 35.0248 287.335 34.6644 287.116 34.197C286.9 33.7271 286.791 33.1634 286.791 32.5059C286.791 31.8485 286.901 31.2861 287.12 30.8188C287.342 30.3515 287.645 29.9937 288.031 29.7455C288.416 29.4973 288.853 29.3732 289.342 29.3732C289.719 29.3732 290.023 29.4366 290.253 29.5633C290.485 29.6874 290.665 29.8326 290.791 29.999C290.921 30.1653 291.021 30.3119 291.092 30.4386H291.164V27.4247H292.348V35.5356H291.191V34.5891H291.092C291.021 34.7185 290.918 34.8663 290.783 35.0327C290.651 35.199 290.469 35.3442 290.237 35.4683C290.005 35.5924 289.704 35.6545 289.334 35.6545ZM289.595 34.6445C289.936 34.6445 290.224 34.5548 290.459 34.3752C290.696 34.1931 290.876 33.9409 290.997 33.6188C291.121 33.2967 291.183 32.9218 291.183 32.494C291.183 32.0716 291.123 31.702 291.001 31.3851C290.88 31.0683 290.702 30.8214 290.467 30.6445C290.232 30.4676 289.941 30.3792 289.595 30.3792C289.239 30.3792 288.942 30.4716 288.704 30.6564C288.467 30.8412 288.287 31.0934 288.166 31.4128C288.047 31.7323 287.987 32.0927 287.987 32.494C287.987 32.9006 288.048 33.2663 288.17 33.5911C288.291 33.9158 288.471 34.1733 288.708 34.3634C288.948 34.5508 289.244 34.6445 289.595 34.6445ZM296.66 35.6584C296.06 35.6584 295.544 35.5304 295.111 35.2743C294.681 35.0155 294.348 34.6525 294.113 34.1851C293.881 33.7152 293.765 33.1647 293.765 32.5336C293.765 31.9105 293.881 31.3614 294.113 30.8861C294.348 30.4109 294.675 30.0399 295.095 29.7732C295.518 29.5066 296.011 29.3732 296.576 29.3732C296.92 29.3732 297.252 29.43 297.575 29.5435C297.897 29.6571 298.186 29.8353 298.442 30.0782C298.698 30.3211 298.9 30.6366 299.048 31.0247C299.196 31.4102 299.27 31.8789 299.27 32.4307V32.8505H294.434V31.9633H298.109C298.109 31.6518 298.046 31.3759 297.919 31.1356C297.792 30.8927 297.614 30.7013 297.384 30.5614C297.157 30.4214 296.891 30.3515 296.584 30.3515C296.252 30.3515 295.961 30.4333 295.713 30.597C295.468 30.7581 295.277 30.9693 295.143 31.2307C295.011 31.4894 294.945 31.7706 294.945 32.0742V32.7673C294.945 33.1739 295.016 33.5198 295.159 33.8049C295.304 34.0901 295.506 34.3079 295.765 34.4584C296.023 34.6063 296.326 34.6802 296.672 34.6802C296.896 34.6802 297.101 34.6485 297.285 34.5851C297.47 34.5191 297.63 34.4214 297.765 34.2921C297.899 34.1627 298.002 34.003 298.074 33.8129L299.194 34.0148C299.105 34.3449 298.944 34.634 298.711 34.8822C298.481 35.1277 298.192 35.3191 297.844 35.4564C297.498 35.5911 297.103 35.6584 296.66 35.6584ZM300.583 35.5356V29.4524H301.728V30.4188H301.791C301.902 30.0914 302.098 29.834 302.378 29.6465C302.66 29.4564 302.98 29.3613 303.336 29.3613C303.41 29.3613 303.497 29.364 303.597 29.3693C303.7 29.3746 303.781 29.3812 303.839 29.3891V30.5218C303.791 30.5086 303.707 30.494 303.585 30.4782C303.464 30.4597 303.343 30.4505 303.221 30.4505C302.941 30.4505 302.692 30.5099 302.473 30.6287C302.256 30.7449 302.084 30.9072 301.958 31.1158C301.831 31.3218 301.768 31.5567 301.768 31.8208V35.5356H300.583ZM309.422 30.9376L308.349 31.1277C308.304 30.9904 308.233 30.8597 308.135 30.7356C308.04 30.6115 307.911 30.5099 307.747 30.4307C307.583 30.3515 307.379 30.3119 307.133 30.3119C306.798 30.3119 306.518 30.3871 306.293 30.5376C306.069 30.6854 305.957 30.8769 305.957 31.1119C305.957 31.3152 306.032 31.4789 306.182 31.6029C306.333 31.727 306.576 31.8287 306.911 31.9079L307.878 32.1297C308.437 32.2591 308.854 32.4584 309.129 32.7277C309.404 32.997 309.541 33.3469 309.541 33.7772C309.541 34.1416 309.435 34.4663 309.224 34.7515C309.016 35.034 308.724 35.2558 308.349 35.4168C307.977 35.5779 307.545 35.6584 307.054 35.6584C306.373 35.6584 305.817 35.5132 305.386 35.2228C304.956 34.9297 304.692 34.5139 304.594 33.9752L305.739 33.801C305.81 34.0993 305.957 34.3251 306.179 34.4782C306.4 34.6287 306.689 34.704 307.046 34.704C307.434 34.704 307.744 34.6234 307.977 34.4624C308.209 34.2987 308.325 34.0993 308.325 33.8643C308.325 33.6742 308.254 33.5145 308.111 33.3851C307.971 33.2558 307.756 33.1581 307.466 33.0921L306.436 32.8663C305.868 32.7369 305.448 32.531 305.177 32.2485C304.907 31.966 304.773 31.6082 304.773 31.1752C304.773 30.8161 304.873 30.502 305.074 30.2326C305.274 29.9633 305.551 29.7534 305.905 29.6029C306.259 29.4498 306.664 29.3732 307.121 29.3732C307.779 29.3732 308.296 29.5158 308.674 29.801C309.051 30.0835 309.301 30.4623 309.422 30.9376Z" fill="white"/>
</g>
</g>
<defs>
<filter id="filter0_d_25_255" x="0.535156" y="0" width="340.346" height="337" filterUnits="userSpaceOnUse" color-interpolation-filters="sRGB">
<feFlood flood-opacity="0" result="BackgroundImageFix"/>
<feColorMatrix in="SourceAlpha" type="matrix" values="0 0 0 0 0 0 0 0 0 0 0 0 0 0 0 0 0 0 127 0" result="hardAlpha"/>
<feOffset dy="4"/>
<feGaussianBlur stdDeviation="2"/>
<feComposite in2="hardAlpha" operator="out"/>
<feColorMatrix type="matrix" values="0 0 0 0 0 0 0 0 0 0 0 0 0 0 0 0 0 0 0.25 0"/>
<feBlend mode="normal" in2="BackgroundImageFix" result="effect1_dropShadow_25_255"/>
<feBlend mode="normal" in="SourceGraphic" in2="effect1_dropShadow_25_255" result="shape"/>
</filter>
<linearGradient id="paint0_linear_25_255" x1="170.708" y1="267.585" x2="170.708" y2="329" gradientUnits="userSpaceOnUse">
<stop stop-color="#FFF4E2" stop-opacity="0"/>
<stop offset="1" stop-color="#FFF4E2"/>
</linearGradient>
<radialGradient id="paint1_angular_25_255" cx="0" cy="0" r="1" gradientUnits="userSpaceOnUse" gradientTransform="translate(387.688 2.23037) scale(682.04 383.648)">
<stop stop-color="#0052FF"/>
<stop offset="1" stop-color="white"/>
<stop offset="1" stop-color="white" stop-opacity="0"/>
</radialGradient>
<radialGradient id="paint2_radial_25_255" cx="0" cy="0" r="1" gradientUnits="userSpaceOnUse" gradientTransform="translate(-14.4238 240.776) rotate(90) scale(252.167 536.755)">
<stop offset="0.0709894" stop-color="white"/>
<stop offset="1" stop-color="white"/>
</radialGradient>
<radialGradient id="paint3_radial_25_255" cx="0" cy="0" r="1" gradientUnits="userSpaceOnUse" gradientTransform="translate(-87.4731 304.768) rotate(90) scale(222.747 476.115)">
<stop offset="0.0709894" stop-color="white"/>
<stop offset="1" stop-color="white"/>
</radialGradient>
<radialGradient id="paint4_radial_25_255" cx="0" cy="0" r="1" gradientUnits="userSpaceOnUse" gradientTransform="translate(48.5878 303.057) rotate(90) scale(246.763 526.548)">
<stop offset="0.0709894" stop-color="white"/>
<stop offset="1" stop-color="white"/>
</radialGradient>
<radialGradient id="paint5_radial_25_255" cx="0" cy="0" r="1" gradientUnits="userSpaceOnUse" gradientTransform="translate(109.598 395.927) rotate(-58.6745) scale(197.874 198.681)">
<stop offset="0.0709894" stop-color="white"/>
<stop offset="1" stop-color="#E8E8E8"/>
</radialGradient>
<clipPath id="clip0_25_255">
<rect x="4.53516" width="332.346" height="329" rx="28.9966" fill="white"/>
</clipPath>
</defs>
</svg>
