<svg width="393" height="62" viewBox="0 0 393 62" fill="none" xmlns="http://www.w3.org/2000/svg">
<rect width="393" height="62" fill="white"/>
<circle cx="33.6812" cy="35.6812" r="17.6812" fill="#0052FF"/>
<path d="M33.7032 41.5747C30.4408 41.5747 27.7983 38.9373 27.7983 35.681C27.7983 32.4247 30.4408 29.7873 33.7032 29.7873C36.626 29.7873 39.0519 31.9139 39.5194 34.6987H45.4684C44.9665 28.6478 39.8933 23.8936 33.7032 23.8936C27.1833 23.8936 21.8936 29.1733 21.8936 35.681C21.8936 42.1886 27.1833 47.4684 33.7032 47.4684C39.8933 47.4684 44.9665 42.7142 45.4684 36.6633H39.5144C39.047 39.4481 36.626 41.5747 33.7032 41.5747Z" fill="white"/>
<path d="M70.4964 34.326H68.1058C68.0376 33.9339 67.9119 33.5866 67.7287 33.2841C67.5455 32.9773 67.3175 32.7173 67.0447 32.5043C66.772 32.2912 66.4609 32.1314 66.1115 32.0249C65.7663 31.9141 65.3935 31.8587 64.9929 31.8587C64.2813 31.8587 63.6506 32.0376 63.1009 32.3956C62.5511 32.7493 62.1207 33.2692 61.8097 33.9553C61.4986 34.6371 61.343 35.4702 61.343 36.4545C61.343 37.456 61.4986 38.2997 61.8097 38.9858C62.125 39.6676 62.5554 40.1832 63.1009 40.5327C63.6506 40.8778 64.2791 41.0504 64.9865 41.0504C65.3786 41.0504 65.745 40.9993 66.0859 40.897C66.4311 40.7905 66.7401 40.6349 67.0128 40.4304C67.2898 40.2259 67.522 39.9744 67.7095 39.6761C67.9013 39.3778 68.0334 39.0369 68.1058 38.6534L70.4964 38.6662C70.407 39.2884 70.2131 39.8722 69.9148 40.4176C69.6207 40.9631 69.2351 41.4446 68.7578 41.8622C68.2805 42.2756 67.7223 42.5994 67.0831 42.8338C66.4439 43.0639 65.7344 43.179 64.9545 43.179C63.804 43.179 62.777 42.9126 61.8736 42.38C60.9702 41.8473 60.2585 41.0781 59.7386 40.0724C59.2188 39.0668 58.9588 37.8608 58.9588 36.4545C58.9588 35.044 59.2209 33.8381 59.745 32.8366C60.2692 31.831 60.983 31.0618 61.8864 30.5291C62.7898 29.9964 63.8125 29.7301 64.9545 29.7301C65.6832 29.7301 66.3608 29.8324 66.9872 30.0369C67.6136 30.2415 68.1719 30.5419 68.6619 30.9382C69.152 31.3303 69.5547 31.8118 69.87 32.3828C70.1896 32.9496 70.3984 33.5973 70.4964 34.326ZM76.8485 43.1918C75.8897 43.1918 75.0588 42.9808 74.3556 42.5589C73.6525 42.1371 73.1071 41.5469 72.7193 40.7884C72.3358 40.0298 72.144 39.1435 72.144 38.1293C72.144 37.1151 72.3358 36.2266 72.7193 35.4638C73.1071 34.701 73.6525 34.1087 74.3556 33.6868C75.0588 33.2649 75.8897 33.054 76.8485 33.054C77.8074 33.054 78.6383 33.2649 79.3414 33.6868C80.0446 34.1087 80.5879 34.701 80.9714 35.4638C81.3592 36.2266 81.5531 37.1151 81.5531 38.1293C81.5531 39.1435 81.3592 40.0298 80.9714 40.7884C80.5879 41.5469 80.0446 42.1371 79.3414 42.5589C78.6383 42.9808 77.8074 43.1918 76.8485 43.1918ZM76.8613 41.3381C77.3812 41.3381 77.8159 41.1953 78.1653 40.9098C78.5147 40.62 78.7747 40.2322 78.9451 39.7464C79.1199 39.2607 79.2072 38.7195 79.2072 38.1229C79.2072 37.522 79.1199 36.9787 78.9451 36.4929C78.7747 36.0028 78.5147 35.6129 78.1653 35.3232C77.8159 35.0334 77.3812 34.8885 76.8613 34.8885C76.3287 34.8885 75.8855 35.0334 75.5318 35.3232C75.1824 35.6129 74.9203 36.0028 74.7456 36.4929C74.5751 36.9787 74.4899 37.522 74.4899 38.1229C74.4899 38.7195 74.5751 39.2607 74.7456 39.7464C74.9203 40.2322 75.1824 40.62 75.5318 40.9098C75.8855 41.1953 76.3287 41.3381 76.8613 41.3381ZM83.517 43V33.1818H85.831V43H83.517ZM84.6804 31.7884C84.3139 31.7884 83.9986 31.6669 83.7344 31.424C83.4702 31.1768 83.3381 30.8807 83.3381 30.5355C83.3381 30.1861 83.4702 29.8899 83.7344 29.647C83.9986 29.3999 84.3139 29.2763 84.6804 29.2763C85.0511 29.2763 85.3665 29.3999 85.6264 29.647C85.8906 29.8899 86.0227 30.1861 86.0227 30.5355C86.0227 30.8807 85.8906 31.1768 85.6264 31.424C85.3665 31.6669 85.0511 31.7884 84.6804 31.7884ZM90.5243 37.2472V43H88.2104V33.1818H90.4221V34.8501H90.5371C90.763 34.3004 91.123 33.8636 91.6174 33.5398C92.1159 33.2159 92.7317 33.054 93.4647 33.054C94.1422 33.054 94.7324 33.1989 95.2353 33.4886C95.7424 33.7784 96.1344 34.1982 96.4114 34.7479C96.6926 35.2976 96.8311 35.9645 96.8269 36.7486V43H94.513V37.1065C94.513 36.4503 94.3425 35.9368 94.0016 35.5661C93.665 35.1953 93.1983 35.0099 92.6017 35.0099C92.1969 35.0099 91.8368 35.0994 91.5215 35.2784C91.2104 35.4531 90.9654 35.7067 90.7864 36.0391C90.6117 36.3714 90.5243 36.7741 90.5243 37.2472ZM99.2814 43V29.9091H101.595V34.8054H101.691C101.811 34.5668 101.979 34.3132 102.196 34.0447C102.414 33.772 102.708 33.5398 103.078 33.348C103.449 33.152 103.922 33.054 104.497 33.054C105.256 33.054 105.94 33.2479 106.549 33.6357C107.163 34.0192 107.649 34.5881 108.007 35.3423C108.369 36.0923 108.55 37.0128 108.55 38.1037C108.55 39.1818 108.373 40.098 108.019 40.8523C107.666 41.6065 107.184 42.1818 106.575 42.5781C105.965 42.9744 105.275 43.1726 104.504 43.1726C103.941 43.1726 103.475 43.0788 103.104 42.8913C102.733 42.7038 102.435 42.478 102.209 42.2138C101.987 41.9453 101.815 41.6918 101.691 41.4531H101.557V43H99.2814ZM101.551 38.0909C101.551 38.7259 101.64 39.282 101.819 39.7592C102.002 40.2365 102.264 40.6094 102.605 40.8778C102.95 41.142 103.368 41.2741 103.858 41.2741C104.369 41.2741 104.798 41.1378 105.143 40.8651C105.488 40.5881 105.748 40.2109 105.923 39.7337C106.102 39.2521 106.191 38.7045 106.191 38.0909C106.191 37.4815 106.104 36.9403 105.929 36.4673C105.754 35.9943 105.494 35.6236 105.149 35.3551C104.804 35.0866 104.374 34.9524 103.858 34.9524C103.364 34.9524 102.944 35.0824 102.599 35.3423C102.254 35.6023 101.992 35.9666 101.813 36.4354C101.638 36.9041 101.551 37.456 101.551 38.0909ZM113.342 43.1982C112.72 43.1982 112.16 43.0874 111.661 42.8658C111.167 42.6399 110.775 42.3075 110.485 41.8686C110.2 41.4297 110.057 40.8885 110.057 40.245C110.057 39.6911 110.159 39.233 110.364 38.8707C110.568 38.5085 110.847 38.2188 111.201 38.0014C111.555 37.7841 111.953 37.62 112.396 37.5092C112.844 37.3942 113.306 37.3111 113.783 37.2599C114.359 37.2003 114.825 37.147 115.183 37.1001C115.541 37.049 115.801 36.9723 115.963 36.87C116.129 36.7635 116.212 36.5994 116.212 36.3778V36.3395C116.212 35.858 116.07 35.4851 115.784 35.2209C115.499 34.9567 115.087 34.8246 114.55 34.8246C113.984 34.8246 113.534 34.9482 113.202 35.1953C112.874 35.4425 112.652 35.7344 112.537 36.071L110.376 35.7642C110.547 35.1676 110.828 34.669 111.22 34.2685C111.612 33.8636 112.092 33.5611 112.658 33.3608C113.225 33.1562 113.852 33.054 114.538 33.054C115.011 33.054 115.482 33.1094 115.95 33.2202C116.419 33.331 116.847 33.5142 117.235 33.7699C117.623 34.0213 117.934 34.3643 118.168 34.799C118.407 35.2337 118.526 35.777 118.526 36.429V43H116.302V41.6513H116.225C116.085 41.924 115.886 42.1797 115.631 42.4183C115.379 42.6527 115.062 42.8423 114.678 42.9872C114.299 43.1278 113.854 43.1982 113.342 43.1982ZM113.943 41.4979C114.408 41.4979 114.81 41.4062 115.151 41.223C115.492 41.0355 115.754 40.7884 115.938 40.4815C116.125 40.1747 116.219 39.8402 116.219 39.478V38.321C116.146 38.3807 116.023 38.4361 115.848 38.4872C115.678 38.5384 115.486 38.5831 115.273 38.6214C115.06 38.6598 114.849 38.6939 114.64 38.7237C114.431 38.7536 114.25 38.7791 114.097 38.8004C113.751 38.8473 113.442 38.924 113.17 39.0305C112.897 39.1371 112.682 39.2862 112.524 39.478C112.366 39.6655 112.288 39.9084 112.288 40.2067C112.288 40.6328 112.443 40.9545 112.754 41.1719C113.065 41.3892 113.462 41.4979 113.943 41.4979ZM128.613 35.777L126.504 36.0071C126.444 35.794 126.339 35.5938 126.19 35.4062C126.045 35.2188 125.849 35.0675 125.602 34.9524C125.355 34.8374 125.053 34.7798 124.695 34.7798C124.213 34.7798 123.808 34.8842 123.48 35.093C123.156 35.3018 122.996 35.5724 123.001 35.9048C122.996 36.1903 123.101 36.4226 123.314 36.6016C123.531 36.7805 123.889 36.9276 124.388 37.0426L126.062 37.4006C126.991 37.6009 127.682 37.9183 128.134 38.353C128.589 38.7876 128.82 39.3565 128.824 40.0597C128.82 40.6776 128.638 41.223 128.281 41.696C127.927 42.1648 127.435 42.5312 126.804 42.7955C126.173 43.0597 125.449 43.1918 124.631 43.1918C123.429 43.1918 122.462 42.9403 121.729 42.4375C120.996 41.9304 120.559 41.2251 120.418 40.3217L122.675 40.1044C122.777 40.5476 122.994 40.8821 123.327 41.108C123.659 41.3338 124.092 41.4467 124.624 41.4467C125.174 41.4467 125.615 41.3338 125.947 41.108C126.284 40.8821 126.452 40.603 126.452 40.2706C126.452 39.9893 126.344 39.7571 126.126 39.5739C125.913 39.3906 125.581 39.25 125.129 39.152L123.455 38.8004C122.513 38.6044 121.816 38.2741 121.364 37.8097C120.913 37.3409 120.689 36.7486 120.693 36.0327C120.689 35.4276 120.853 34.9034 121.185 34.4602C121.522 34.0128 121.989 33.6676 122.585 33.4247C123.186 33.1776 123.879 33.054 124.663 33.054C125.813 33.054 126.719 33.299 127.379 33.7891C128.044 34.2791 128.455 34.9418 128.613 35.777ZM135.078 43.1918C134.094 43.1918 133.244 42.9872 132.528 42.5781C131.816 42.1648 131.269 41.581 130.885 40.8267C130.502 40.0682 130.31 39.1754 130.31 38.1484C130.31 37.1385 130.502 36.2521 130.885 35.4893C131.273 34.7223 131.814 34.1257 132.509 33.6996C133.203 33.2692 134.02 33.054 134.957 33.054C135.562 33.054 136.133 33.152 136.67 33.348C137.211 33.5398 137.689 33.8381 138.102 34.2429C138.52 34.6477 138.848 35.1634 139.086 35.7898C139.325 36.4119 139.444 37.1534 139.444 38.0142V38.7237H131.397V37.1641H137.226C137.222 36.7209 137.126 36.3267 136.939 35.9815C136.751 35.6321 136.489 35.3572 136.152 35.157C135.82 34.9567 135.432 34.8565 134.989 34.8565C134.516 34.8565 134.1 34.9716 133.743 35.2017C133.385 35.4276 133.105 35.7259 132.905 36.0966C132.709 36.4631 132.609 36.8658 132.605 37.3047V38.6662C132.605 39.2372 132.709 39.7273 132.918 40.1364C133.127 40.5412 133.419 40.8523 133.794 41.0696C134.169 41.2827 134.608 41.3892 135.11 41.3892C135.447 41.3892 135.752 41.3423 136.025 41.2486C136.297 41.1506 136.534 41.0078 136.734 40.8203C136.934 40.6328 137.086 40.4006 137.188 40.1236L139.348 40.3665C139.212 40.9375 138.952 41.4361 138.569 41.8622C138.189 42.2841 137.703 42.6122 137.111 42.8466C136.519 43.0767 135.841 43.1918 135.078 43.1918Z" fill="#0A0A0A"/>
</svg>
