<svg width="333" height="329" viewBox="0 0 333 329" fill="none" xmlns="http://www.w3.org/2000/svg">
<g clip-path="url(#clip0_25_255)">
<rect x="0.535156" width="332.346" height="329" rx="28.9966" fill="#FFF4E2"/>
<path d="M0.535156 265.431H326.959C330.23 265.431 332.881 268.082 332.881 271.352V329H6.45671C3.18633 329 0.535156 326.349 0.535156 323.078V265.431Z" fill="url(#paint0_linear_25_255)"/>
<path d="M-298.353 385.878L-298.353 -381.417L1065.73 -381.417L1065.73 385.878L-298.353 385.878Z" fill="url(#paint1_angular_25_255)"/>
<path opacity="0.4" d="M480.095 258.739C480.095 388.086 256.901 492.942 -18.4237 492.942C-293.748 492.942 -516.942 388.086 -516.942 258.739C-516.942 129.392 -293.748 24.5356 -18.4237 24.5356C256.901 24.5356 480.095 129.392 480.095 258.739ZM-457.393 258.739C-457.393 372.635 -260.86 464.966 -18.4237 464.966C224.012 464.966 420.546 372.635 420.546 258.739C420.546 144.843 224.012 52.5118 -18.4237 52.5118C-260.86 52.5118 -457.393 144.843 -457.393 258.739Z" fill="url(#paint2_radial_25_255)" fill-opacity="0.6"/>
<path opacity="0.4" d="M350.725 320.636C350.725 434.892 152.746 527.515 -91.4731 527.515C-335.692 527.515 -533.671 434.892 -533.671 320.636C-533.671 206.379 -335.692 113.756 -91.4731 113.756C152.746 113.756 350.725 206.379 350.725 320.636ZM-480.85 320.636C-480.85 421.244 -306.52 502.803 -91.4731 502.803C123.574 502.803 297.904 421.244 297.904 320.636C297.904 220.027 123.574 138.468 -91.4731 138.468C-306.52 138.468 -480.85 220.027 -480.85 320.636Z" fill="url(#paint3_radial_25_255)" fill-opacity="0.6"/>
<path opacity="0.4" d="M533.627 320.636C533.627 447.211 314.677 549.82 44.5878 549.82C-225.501 549.82 -444.451 447.211 -444.451 320.636C-444.451 194.06 -225.501 91.4508 44.5878 91.4508C314.677 91.4508 533.627 194.06 533.627 320.636ZM-386.034 320.636C-386.034 432.091 -193.238 522.444 44.5878 522.444C282.414 522.444 475.21 432.091 475.21 320.636C475.21 209.18 282.414 118.827 44.5878 118.827C-193.238 118.827 -386.034 209.18 -386.034 320.636Z" fill="url(#paint4_radial_25_255)" fill-opacity="0.6"/>
<path opacity="0.6" d="M-44.7022 287.951C-31.0595 265.535 -12.7549 246.312 8.98017 231.576C30.7153 216.84 55.3768 206.933 81.3059 202.52C107.235 198.107 133.83 199.291 159.303 205.992C184.776 212.694 208.535 224.757 228.982 241.371L222.437 249.408C203.143 233.731 180.724 222.348 156.687 216.025C132.651 209.701 107.556 208.584 83.0892 212.748C58.6223 216.912 35.3516 226.261 14.8423 240.166C-5.66701 254.071 -22.9393 272.209 -35.8126 293.361L-44.7022 287.951Z" fill="url(#paint5_radial_25_255)" fill-opacity="0.6"/>
<path d="M72.3594 271.523L17.5293 315.327H262.371L322.821 271.523L72.3594 271.523Z" fill="#0A0A0A" stroke="#0A0A0A" stroke-width="1.11525" stroke-linejoin="round"/>
<path d="M69.8633 265.721L15.0332 309.525H261.255L321.705 265.721H69.8633Z" fill="#FAE5C3" stroke="#0A0A0A" stroke-width="1.11525" stroke-linejoin="round"/>
<path d="M114.596 285.068H111.338C111.245 284.534 111.073 284.06 110.824 283.648C110.574 283.23 110.263 282.875 109.891 282.585C109.52 282.295 109.096 282.077 108.619 281.932C108.149 281.78 107.64 281.705 107.094 281.705C106.124 281.705 105.265 281.949 104.515 282.437C103.766 282.919 103.179 283.628 102.755 284.563C102.331 285.492 102.119 286.628 102.119 287.97C102.119 289.335 102.331 290.485 102.755 291.42C103.185 292.349 103.772 293.052 104.515 293.528C105.265 293.999 106.121 294.234 107.086 294.234C107.62 294.234 108.12 294.164 108.584 294.025C109.055 293.88 109.476 293.668 109.848 293.389C110.225 293.11 110.542 292.767 110.797 292.361C111.059 291.954 111.239 291.49 111.338 290.967L114.596 290.984C114.474 291.832 114.21 292.628 113.803 293.372C113.403 294.115 112.877 294.771 112.226 295.341C111.576 295.904 110.815 296.346 109.944 296.665C109.072 296.979 108.105 297.136 107.042 297.136C105.474 297.136 104.074 296.773 102.843 296.046C101.611 295.32 100.641 294.272 99.9324 292.901C99.2238 291.53 98.8694 289.886 98.8694 287.97C98.8694 286.047 99.2267 284.403 99.9411 283.038C100.656 281.667 101.629 280.619 102.86 279.893C104.091 279.167 105.485 278.804 107.042 278.804C108.035 278.804 108.959 278.943 109.813 279.222C110.667 279.501 111.428 279.91 112.096 280.45C112.764 280.985 113.313 281.641 113.742 282.419C114.178 283.192 114.463 284.075 114.596 285.068ZM123.255 297.153C121.948 297.153 120.815 296.865 119.857 296.29C118.898 295.715 118.155 294.911 117.626 293.877C117.103 292.843 116.842 291.635 116.842 290.252C116.842 288.87 117.103 287.659 117.626 286.619C118.155 285.579 118.898 284.772 119.857 284.197C120.815 283.622 121.948 283.334 123.255 283.334C124.562 283.334 125.694 283.622 126.653 284.197C127.611 284.772 128.352 285.579 128.875 286.619C129.403 287.659 129.667 288.87 129.667 290.252C129.667 291.635 129.403 292.843 128.875 293.877C128.352 294.911 127.611 295.715 126.653 296.29C125.694 296.865 124.562 297.153 123.255 297.153ZM123.272 294.626C123.981 294.626 124.573 294.432 125.05 294.042C125.526 293.647 125.88 293.119 126.113 292.457C126.351 291.795 126.47 291.057 126.47 290.244C126.47 289.425 126.351 288.684 126.113 288.022C125.88 287.354 125.526 286.822 125.05 286.427C124.573 286.032 123.981 285.835 123.272 285.835C122.546 285.835 121.942 286.032 121.46 286.427C120.984 286.822 120.626 287.354 120.388 288.022C120.156 288.684 120.04 289.425 120.04 290.244C120.04 291.057 120.156 291.795 120.388 292.457C120.626 293.119 120.984 293.647 121.46 294.042C121.942 294.432 122.546 294.626 123.272 294.626ZM132.344 296.892V283.509H135.499V296.892H132.344ZM133.93 281.609C133.431 281.609 133.001 281.444 132.641 281.112C132.281 280.776 132.101 280.372 132.101 279.901C132.101 279.425 132.281 279.021 132.641 278.69C133.001 278.353 133.431 278.185 133.93 278.185C134.436 278.185 134.865 278.353 135.22 278.69C135.58 279.021 135.76 279.425 135.76 279.901C135.76 280.372 135.58 280.776 135.22 281.112C134.865 281.444 134.436 281.609 133.93 281.609ZM141.896 289.05V296.892H138.742V283.509H141.757V285.783H141.913C142.221 285.033 142.712 284.438 143.386 283.996C144.066 283.555 144.905 283.334 145.904 283.334C146.828 283.334 147.632 283.532 148.317 283.927C149.009 284.322 149.543 284.894 149.921 285.643C150.304 286.393 150.493 287.302 150.487 288.37V296.892H147.333V288.858C147.333 287.964 147.101 287.264 146.636 286.758C146.177 286.253 145.541 286 144.728 286C144.176 286 143.685 286.122 143.255 286.366C142.831 286.605 142.497 286.95 142.253 287.403C142.015 287.856 141.896 288.405 141.896 289.05ZM153.833 296.892V279.048H156.987V285.722H157.118C157.28 285.396 157.51 285.051 157.806 284.685C158.102 284.313 158.503 283.996 159.008 283.735C159.514 283.468 160.158 283.334 160.942 283.334C161.976 283.334 162.909 283.599 163.739 284.127C164.576 284.65 165.238 285.425 165.726 286.454C166.22 287.476 166.466 288.73 166.466 290.218C166.466 291.687 166.225 292.936 165.743 293.964C165.261 294.992 164.605 295.776 163.774 296.317C162.944 296.857 162.003 297.127 160.951 297.127C160.184 297.127 159.548 296.999 159.043 296.743C158.538 296.488 158.131 296.18 157.823 295.82C157.521 295.454 157.286 295.108 157.118 294.783H156.935V296.892H153.833ZM156.926 290.2C156.926 291.066 157.048 291.824 157.292 292.474C157.542 293.125 157.899 293.633 158.363 293.999C158.834 294.359 159.403 294.539 160.071 294.539C160.768 294.539 161.352 294.353 161.822 293.981C162.293 293.604 162.647 293.09 162.885 292.439C163.129 291.783 163.251 291.037 163.251 290.2C163.251 289.369 163.132 288.632 162.894 287.987C162.656 287.342 162.302 286.837 161.831 286.471C161.361 286.105 160.774 285.922 160.071 285.922C159.397 285.922 158.825 286.099 158.355 286.454C157.884 286.808 157.527 287.304 157.283 287.943C157.045 288.582 156.926 289.335 156.926 290.2ZM172.999 297.162C172.151 297.162 171.387 297.011 170.708 296.709C170.034 296.401 169.499 295.948 169.104 295.349C168.715 294.751 168.521 294.013 168.521 293.136C168.521 292.381 168.66 291.757 168.939 291.263C169.218 290.769 169.598 290.374 170.08 290.078C170.562 289.782 171.105 289.558 171.709 289.407C172.319 289.25 172.95 289.137 173.6 289.067C174.384 288.986 175.02 288.913 175.508 288.85C175.996 288.78 176.351 288.675 176.571 288.536C176.798 288.391 176.911 288.167 176.911 287.865V287.813C176.911 287.156 176.717 286.648 176.327 286.288C175.938 285.928 175.378 285.748 174.646 285.748C173.873 285.748 173.26 285.916 172.807 286.253C172.36 286.59 172.058 286.988 171.901 287.447L168.956 287.029C169.189 286.215 169.572 285.536 170.106 284.99C170.641 284.438 171.294 284.026 172.067 283.753C172.839 283.474 173.693 283.334 174.628 283.334C175.273 283.334 175.915 283.41 176.554 283.561C177.193 283.712 177.777 283.962 178.305 284.31C178.834 284.653 179.258 285.12 179.577 285.713C179.903 286.305 180.065 287.046 180.065 287.935V296.892H177.033V295.053H176.929C176.737 295.425 176.467 295.773 176.118 296.099C175.776 296.418 175.343 296.677 174.82 296.874C174.303 297.066 173.696 297.162 172.999 297.162ZM173.818 294.844C174.451 294.844 175 294.719 175.465 294.469C175.929 294.214 176.287 293.877 176.536 293.459C176.792 293.04 176.92 292.585 176.92 292.091V290.514C176.821 290.595 176.653 290.671 176.414 290.74C176.182 290.81 175.921 290.871 175.63 290.923C175.34 290.976 175.052 291.022 174.768 291.063C174.483 291.103 174.236 291.138 174.027 291.167C173.557 291.231 173.136 291.336 172.764 291.481C172.392 291.626 172.099 291.829 171.884 292.091C171.669 292.346 171.561 292.677 171.561 293.084C171.561 293.665 171.773 294.103 172.197 294.4C172.621 294.696 173.162 294.844 173.818 294.844ZM193.814 287.046L190.939 287.36C190.858 287.069 190.715 286.796 190.512 286.541C190.314 286.285 190.047 286.079 189.71 285.922C189.373 285.765 188.961 285.687 188.473 285.687C187.817 285.687 187.265 285.829 186.818 286.114C186.376 286.398 186.158 286.767 186.164 287.22C186.158 287.609 186.301 287.926 186.591 288.17C186.887 288.414 187.375 288.614 188.055 288.771L190.338 289.259C191.604 289.532 192.545 289.965 193.161 290.557C193.782 291.15 194.096 291.925 194.102 292.884C194.096 293.726 193.849 294.469 193.361 295.114C192.879 295.753 192.208 296.253 191.348 296.613C190.489 296.973 189.501 297.153 188.386 297.153C186.748 297.153 185.429 296.81 184.43 296.125C183.431 295.434 182.836 294.472 182.644 293.241L185.72 292.945C185.859 293.549 186.156 294.005 186.609 294.313C187.062 294.62 187.651 294.774 188.377 294.774C189.127 294.774 189.728 294.62 190.181 294.313C190.64 294.005 190.869 293.624 190.869 293.171C190.869 292.788 190.721 292.471 190.425 292.221C190.134 291.972 189.681 291.78 189.066 291.646L186.783 291.167C185.499 290.9 184.549 290.45 183.934 289.817C183.318 289.178 183.013 288.37 183.019 287.395C183.013 286.57 183.237 285.855 183.69 285.251C184.149 284.641 184.785 284.171 185.598 283.84C186.417 283.503 187.361 283.334 188.43 283.334C189.998 283.334 191.232 283.668 192.133 284.336C193.039 285.004 193.599 285.908 193.814 287.046ZM202.627 297.153C201.286 297.153 200.127 296.874 199.151 296.317C198.181 295.753 197.434 294.957 196.912 293.929C196.389 292.895 196.127 291.678 196.127 290.278C196.127 288.902 196.389 287.694 196.912 286.654C197.44 285.608 198.178 284.795 199.125 284.214C200.072 283.628 201.184 283.334 202.462 283.334C203.287 283.334 204.065 283.468 204.797 283.735C205.535 283.996 206.185 284.403 206.749 284.955C207.318 285.507 207.765 286.21 208.09 287.063C208.416 287.911 208.578 288.922 208.578 290.096V291.063H197.609V288.937H205.555C205.549 288.333 205.418 287.795 205.163 287.325C204.907 286.849 204.55 286.474 204.091 286.201C203.638 285.928 203.109 285.791 202.505 285.791C201.861 285.791 201.294 285.948 200.806 286.262C200.318 286.57 199.938 286.976 199.665 287.482C199.398 287.981 199.261 288.53 199.255 289.128V290.984C199.255 291.763 199.398 292.431 199.682 292.988C199.967 293.54 200.365 293.964 200.876 294.26C201.387 294.551 201.985 294.696 202.671 294.696C203.13 294.696 203.545 294.632 203.917 294.504C204.289 294.371 204.611 294.176 204.884 293.92C205.157 293.665 205.363 293.348 205.503 292.971L208.448 293.302C208.262 294.08 207.907 294.76 207.385 295.341C206.868 295.916 206.205 296.363 205.398 296.682C204.591 296.996 203.667 297.153 202.627 297.153Z" fill="#0A0A0A"/>
<circle cx="50.7223" cy="264.315" r="33.4576" fill="#0052FF"/>
<path d="M50.764 275.468C44.5907 275.468 39.5905 270.477 39.5905 264.315C39.5905 258.154 44.5907 253.163 50.764 253.163C56.2949 253.163 60.8853 257.187 61.7699 262.457H73.0272C72.0774 251.007 62.4775 242.01 50.764 242.01C38.4266 242.01 28.417 252.001 28.417 264.315C28.417 276.63 38.4266 286.62 50.764 286.62C62.4775 286.62 72.0774 277.624 73.0272 266.174H61.7606C60.876 271.444 56.2949 275.468 50.764 275.468Z" fill="white"/>
<rect x="18.3799" y="17.8441" width="85.1492" height="26.7661" rx="13.3831" fill="#212121"/>
<path d="M40.6848 31.2272C40.6848 33.0019 39.9798 34.7039 38.7249 35.9588C37.47 37.2137 35.768 37.9187 33.9933 37.9187C32.2186 37.9187 30.5166 37.2137 29.2617 35.9588C28.0068 34.7039 27.3018 33.0019 27.3018 31.2272C27.3018 29.4525 28.0068 27.7505 29.2617 26.4955C30.5166 25.2406 32.2186 24.5356 33.9933 24.5356C35.768 24.5356 37.47 25.2406 38.7249 26.4955C39.9798 27.7505 40.6848 29.4525 40.6848 31.2272ZM35.2452 26.9689H33.5018C33.378 26.9689 33.2572 27.0067 33.1555 27.0771C33.0538 27.1475 32.9759 27.2473 32.9324 27.3631L31.5637 31.013C31.529 31.1052 31.5172 31.2044 31.5293 31.3021C31.5415 31.3998 31.5771 31.493 31.6332 31.5739C31.6893 31.6548 31.7643 31.7209 31.8515 31.7664C31.9388 31.812 32.0358 31.8357 32.1343 31.8355H33.0808L32.1403 34.6544C32.0909 34.8001 32.0964 34.9588 32.1559 35.1007C32.2153 35.2425 32.3246 35.3577 32.4631 35.4246C32.6017 35.4915 32.7598 35.5054 32.9079 35.4637C33.056 35.422 33.1837 35.3276 33.2669 35.1983L36.4606 30.2843C36.5163 30.1981 36.5478 30.0985 36.5517 29.996C36.5556 29.8934 36.5319 29.7917 36.483 29.7015C36.4341 29.6113 36.3618 29.5359 36.2738 29.4833C36.1857 29.4306 36.0851 29.4026 35.9825 29.4022H35.2099L35.8146 27.7902C35.849 27.6982 35.8606 27.5992 35.8484 27.5018C35.8362 27.4044 35.8006 27.3113 35.7447 27.2306C35.6887 27.1499 35.6141 27.084 35.5271 27.0384C35.4401 26.9928 35.3434 26.969 35.2452 26.9689Z" fill="#F3AFC6"/>
<path d="M54.4428 27.6162V35.7272H53.2151V28.844H53.1676L51.227 30.1113V28.939L53.2507 27.6162H54.4428ZM56.6369 35.7272V34.84L59.3815 31.9965C59.6745 31.6875 59.9161 31.4169 60.1062 31.1846C60.299 30.9496 60.4429 30.7265 60.5379 30.5153C60.633 30.304 60.6805 30.0796 60.6805 29.842C60.6805 29.5727 60.6171 29.3403 60.4904 29.145C60.3637 28.9469 60.1907 28.7951 59.9716 28.6895C59.7524 28.5813 59.5056 28.5271 59.231 28.5271C58.9405 28.5271 58.6871 28.5865 58.4706 28.7053C58.2541 28.8242 58.0877 28.9918 57.9716 29.2083C57.8554 29.4248 57.7973 29.6783 57.7973 29.9687H56.629C56.629 29.475 56.7425 29.0433 56.9696 28.6737C57.1966 28.304 57.5082 28.0176 57.9042 27.8143C58.3003 27.6083 58.7504 27.5053 59.2547 27.5053C59.7643 27.5053 60.2132 27.607 60.6013 27.8103C60.992 28.011 61.297 28.2855 61.5161 28.6341C61.7353 28.9799 61.8448 29.3707 61.8448 29.8063C61.8448 30.1073 61.7881 30.4017 61.6745 30.6895C61.5637 30.9773 61.3696 31.2981 61.0924 31.6519C60.8151 32.0031 60.4297 32.4295 59.9359 32.9311L58.324 34.6183V34.6777H61.9755V35.7272H56.6369ZM66.3003 35.8618C65.6746 35.8592 65.1399 35.6942 64.6963 35.3668C64.2528 35.0394 63.9135 34.5628 63.6785 33.9371C63.4435 33.3113 63.326 32.5575 63.326 31.6757C63.326 30.7964 63.4435 30.0453 63.6785 29.4222C63.9161 28.7991 64.2567 28.3238 64.7003 27.9964C65.1465 27.669 65.6799 27.5053 66.3003 27.5053C66.9208 27.5053 67.4528 27.6704 67.8964 28.0004C68.3399 28.3278 68.6792 28.803 68.9142 29.4261C69.1518 30.0466 69.2706 30.7964 69.2706 31.6757C69.2706 32.5602 69.1531 33.3153 68.9182 33.941C68.6832 34.5641 68.3439 35.0407 67.9003 35.3707C67.4568 35.6981 66.9234 35.8618 66.3003 35.8618ZM66.3003 34.8044C66.8495 34.8044 67.2785 34.5364 67.5875 34.0004C67.899 33.4645 68.0548 32.6895 68.0548 31.6757C68.0548 31.0024 67.9835 30.4334 67.8409 29.9687C67.701 29.5014 67.499 29.1476 67.235 28.9073C66.9736 28.6644 66.662 28.543 66.3003 28.543C65.7538 28.543 65.3247 28.8123 65.0132 29.3509C64.7016 29.8895 64.5445 30.6644 64.5419 31.6757C64.5419 32.3516 64.6119 32.9232 64.7518 33.3905C64.8944 33.8552 65.0964 34.2077 65.3577 34.448C65.6191 34.6856 65.9333 34.8044 66.3003 34.8044ZM73.4994 35.8618C72.8736 35.8592 72.339 35.6942 71.8954 35.3668C71.4518 35.0394 71.1126 34.5628 70.8776 33.9371C70.6426 33.3113 70.5251 32.5575 70.5251 31.6757C70.5251 30.7964 70.6426 30.0453 70.8776 29.4222C71.1152 28.7991 71.4558 28.3238 71.8994 27.9964C72.3456 27.669 72.8789 27.5053 73.4994 27.5053C74.1198 27.5053 74.6519 27.6704 75.0954 28.0004C75.539 28.3278 75.8783 28.803 76.1133 29.4261C76.3509 30.0466 76.4697 30.7964 76.4697 31.6757C76.4697 32.5602 76.3522 33.3153 76.1172 33.941C75.8822 34.5641 75.543 35.0407 75.0994 35.3707C74.6558 35.6981 74.1225 35.8618 73.4994 35.8618ZM73.4994 34.8044C74.0486 34.8044 74.4776 34.5364 74.7865 34.0004C75.0981 33.4645 75.2538 32.6895 75.2538 31.6757C75.2538 31.0024 75.1826 30.4334 75.04 29.9687C74.9 29.5014 74.6981 29.1476 74.434 28.9073C74.1726 28.6644 73.8611 28.543 73.4994 28.543C72.9528 28.543 72.5238 28.8123 72.2122 29.3509C71.9007 29.8895 71.7436 30.6644 71.7409 31.6757C71.7409 32.3516 71.8109 32.9232 71.9508 33.3905C72.0934 33.8552 72.2954 34.2077 72.5568 34.448C72.8182 34.6856 73.1324 34.8044 73.4994 34.8044ZM81.7885 27.6162L83.7291 30.7885H83.7925L85.7331 27.6162H87.1509L84.6242 31.6717L87.1668 35.7272H85.741L83.7925 32.5984H83.7291L81.7806 35.7272H80.3549L82.941 31.6717L80.3707 27.6162H81.7885ZM88.3648 35.7272V27.6162H91.2559C91.8869 27.6162 92.4097 27.7311 92.8242 27.9608C93.2388 28.1905 93.549 28.5047 93.7549 28.9034C93.9609 29.2994 94.0639 29.7456 94.0639 30.242C94.0639 30.741 93.9596 31.1899 93.751 31.5885C93.545 31.9846 93.2335 32.2988 92.8163 32.5311C92.4018 32.7608 91.8803 32.8757 91.252 32.8757H89.2638V31.838H91.1411C91.5397 31.838 91.8632 31.7694 92.1114 31.6321C92.3596 31.4922 92.5417 31.3021 92.6579 31.0618C92.7741 30.8215 92.8322 30.5483 92.8322 30.242C92.8322 29.9357 92.7741 29.6638 92.6579 29.4261C92.5417 29.1885 92.3582 29.0024 92.1074 28.8677C91.8592 28.7331 91.5318 28.6657 91.1252 28.6657H89.5886V35.7272H88.3648Z" fill="white"/>
<rect x="219.125" y="17.8441" width="95.8441" height="26.3831" rx="13.1915" fill="black" fill-opacity="0.25"/>
<path d="M232.168 35.6465C231.806 35.6413 231.45 35.5752 231.099 35.4485C230.75 35.3218 230.434 35.1106 230.148 34.8148C229.863 34.5191 229.635 34.1218 229.463 33.6228C229.294 33.1237 229.21 32.5006 229.21 31.7534C229.21 31.0458 229.28 30.4175 229.42 29.8683C229.562 29.3191 229.767 28.8557 230.034 28.4782C230.3 28.098 230.622 27.8089 231 27.6108C231.377 27.4128 231.801 27.3138 232.271 27.3138C232.754 27.3138 233.183 27.4089 233.558 27.599C233.933 27.7891 234.237 28.0518 234.469 28.3871C234.704 28.7224 234.853 29.1039 234.917 29.5316H233.709C233.627 29.1937 233.465 28.9178 233.222 28.7039C232.979 28.4901 232.662 28.3831 232.271 28.3831C231.677 28.3831 231.214 28.6419 230.881 29.1594C230.551 29.6769 230.385 30.3963 230.382 31.3178H230.441C230.581 31.0881 230.753 30.8927 230.956 30.7317C231.162 30.568 231.392 30.4425 231.645 30.3554C231.902 30.2656 232.171 30.2208 232.453 30.2208C232.923 30.2208 233.348 30.3356 233.729 30.5653C234.111 30.7924 234.416 31.1066 234.643 31.5079C234.871 31.9092 234.984 32.3686 234.984 32.8861C234.984 33.4036 234.867 33.8723 234.632 34.2921C234.399 34.7119 234.072 35.0446 233.649 35.2901C233.227 35.533 232.733 35.6518 232.168 35.6465ZM232.164 34.6168C232.476 34.6168 232.754 34.5403 233 34.3871C233.245 34.234 233.44 34.028 233.582 33.7693C233.725 33.5105 233.796 33.2214 233.796 32.902C233.796 32.5904 233.726 32.3066 233.586 32.0505C233.449 31.7944 233.259 31.5911 233.016 31.4406C232.775 31.2901 232.501 31.2148 232.192 31.2148C231.957 31.2148 231.739 31.2597 231.539 31.3495C231.34 31.4392 231.166 31.5633 231.016 31.7218C230.865 31.8802 230.746 32.0624 230.659 32.2683C230.575 32.4716 230.533 32.6868 230.533 32.9138C230.533 33.2175 230.603 33.4987 230.742 33.7574C230.885 34.0162 231.079 34.2247 231.325 34.3832C231.573 34.5389 231.853 34.6168 232.164 34.6168ZM237.613 34.4267L237.553 34.8584C237.514 35.1752 237.446 35.5053 237.351 35.8485C237.259 36.1944 237.163 36.5152 237.062 36.8109C236.965 37.1066 236.884 37.3416 236.821 37.5159H235.981C236.015 37.3522 236.063 37.1304 236.124 36.8505C236.184 36.5733 236.244 36.263 236.302 35.9198C236.36 35.5766 236.404 35.2267 236.433 34.8703L236.472 34.4267H237.613ZM239.099 33.9515V32.9614L242.604 27.4247H243.384V28.8821H242.889L240.382 32.8505V32.9138H245.186V33.9515H239.099ZM242.945 35.5356V33.6505L242.952 33.199V27.4247H244.113V35.5356H242.945ZM249.39 35.6703C248.764 35.6677 248.23 35.5026 247.786 35.1752C247.343 34.8479 247.003 34.3713 246.768 33.7455C246.533 33.1198 246.416 32.366 246.416 31.4841C246.416 30.6049 246.533 29.8538 246.768 29.2307C247.006 28.6075 247.347 28.1323 247.79 27.8049C248.236 27.4775 248.77 27.3138 249.39 27.3138C250.011 27.3138 250.543 27.4788 250.986 27.8089C251.43 28.1363 251.769 28.6115 252.004 29.2346C252.242 29.8551 252.36 30.6049 252.36 31.4841C252.36 32.3686 252.243 33.1237 252.008 33.7495C251.773 34.3726 251.434 34.8492 250.99 35.1792C250.547 35.5066 250.013 35.6703 249.39 35.6703ZM249.39 34.6129C249.939 34.6129 250.368 34.3449 250.677 33.8089C250.989 33.2729 251.145 32.498 251.145 31.4841C251.145 30.8109 251.073 30.2419 250.931 29.7772C250.791 29.3099 250.589 28.9561 250.325 28.7158C250.063 28.4729 249.752 28.3514 249.39 28.3514C248.844 28.3514 248.415 28.6208 248.103 29.1594C247.791 29.698 247.634 30.4729 247.632 31.4841C247.632 32.16 247.702 32.7317 247.842 33.199C247.984 33.6637 248.186 34.0162 248.448 34.2564C248.709 34.4941 249.023 34.6129 249.39 34.6129ZM253.765 35.5356V34.6485L256.51 31.8049C256.803 31.496 257.045 31.2254 257.235 30.993C257.427 30.7581 257.571 30.535 257.666 30.3237C257.761 30.1125 257.809 29.8881 257.809 29.6505C257.809 29.3812 257.746 29.1488 257.619 28.9534C257.492 28.7554 257.319 28.6036 257.1 28.498C256.881 28.3897 256.634 28.3356 256.359 28.3356C256.069 28.3356 255.816 28.395 255.599 28.5138C255.383 28.6326 255.216 28.8003 255.1 29.0168C254.984 29.2333 254.926 29.4868 254.926 29.7772H253.757C253.757 29.2835 253.871 28.8518 254.098 28.4821C254.325 28.1125 254.637 27.826 255.033 27.6227C255.429 27.4168 255.879 27.3138 256.383 27.3138C256.893 27.3138 257.342 27.4155 257.73 27.6188C258.121 27.8194 258.425 28.094 258.645 28.4425C258.864 28.7884 258.973 29.1792 258.973 29.6148C258.973 29.9158 258.917 30.2102 258.803 30.498C258.692 30.7858 258.498 31.1066 258.221 31.4604C257.944 31.8115 257.558 32.2379 257.064 32.7396L255.453 34.4267V34.4861H259.104V35.5356H253.765ZM263.667 35.5356V27.4247H266.638C267.213 27.4247 267.69 27.5198 268.067 27.7099C268.445 27.8973 268.728 28.1521 268.915 28.4742C269.102 28.7937 269.196 29.1541 269.196 29.5554C269.196 29.8934 269.134 30.1785 269.01 30.4109C268.886 30.6406 268.72 30.8254 268.511 30.9653C268.305 31.1026 268.078 31.2029 267.83 31.2663V31.3455C268.099 31.3587 268.362 31.4459 268.618 31.6069C268.877 31.7653 269.091 31.9911 269.26 32.2841C269.428 32.5772 269.513 32.9336 269.513 33.3535C269.513 33.768 269.415 34.1403 269.22 34.4703C269.027 34.7977 268.729 35.0578 268.325 35.2505C267.921 35.4406 267.405 35.5356 266.776 35.5356H263.667ZM264.891 34.4861H266.658C267.244 34.4861 267.663 34.3726 267.917 34.1455C268.17 33.9185 268.297 33.6346 268.297 33.294C268.297 33.0379 268.232 32.803 268.103 32.5891C267.974 32.3752 267.789 32.2049 267.549 32.0782C267.311 31.9515 267.028 31.8881 266.701 31.8881H264.891V34.4861ZM264.891 30.9336H266.531C266.805 30.9336 267.052 30.8808 267.271 30.7752C267.493 30.6696 267.669 30.5218 267.798 30.3317C267.93 30.1389 267.996 29.9118 267.996 29.6505C267.996 29.3151 267.879 29.034 267.644 28.8069C267.409 28.5798 267.048 28.4663 266.562 28.4663H264.891V30.9336ZM274.723 33.0129V29.4524H275.911V35.5356H274.747V34.4822H274.683C274.543 34.8069 274.319 35.0776 274.01 35.2941C273.704 35.5079 273.322 35.6149 272.865 35.6149C272.475 35.6149 272.129 35.529 271.828 35.3574C271.53 35.1832 271.295 34.9257 271.123 34.5851C270.954 34.2445 270.869 33.8234 270.869 33.3218V29.4524H272.054V33.1792C272.054 33.5937 272.168 33.9238 272.398 34.1693C272.628 34.4148 272.926 34.5376 273.293 34.5376C273.515 34.5376 273.735 34.4822 273.955 34.3713C274.176 34.2604 274.36 34.0927 274.505 33.8683C274.653 33.6439 274.726 33.3587 274.723 33.0129ZM277.502 35.5356V29.4524H278.686V35.5356H277.502ZM278.1 28.5138C277.894 28.5138 277.717 28.4452 277.569 28.3079C277.424 28.1679 277.352 28.0016 277.352 27.8089C277.352 27.6135 277.424 27.4471 277.569 27.3099C277.717 27.1699 277.894 27.0999 278.1 27.0999C278.306 27.0999 278.482 27.1699 278.627 27.3099C278.775 27.4471 278.849 27.6135 278.849 27.8089C278.849 28.0016 278.775 28.1679 278.627 28.3079C278.482 28.4452 278.306 28.5138 278.1 28.5138ZM281.464 27.4247V35.5356H280.279V27.4247H281.464ZM285.334 35.6545C284.843 35.6545 284.404 35.529 284.019 35.2782C283.636 35.0248 283.335 34.6644 283.116 34.197C282.9 33.7271 282.791 33.1634 282.791 32.5059C282.791 31.8485 282.901 31.2861 283.12 30.8188C283.342 30.3515 283.645 29.9937 284.031 29.7455C284.416 29.4973 284.853 29.3732 285.342 29.3732C285.719 29.3732 286.023 29.4366 286.253 29.5633C286.485 29.6874 286.665 29.8326 286.791 29.999C286.921 30.1653 287.021 30.3119 287.092 30.4386H287.164V27.4247H288.348V35.5356H287.191V34.5891H287.092C287.021 34.7185 286.918 34.8663 286.783 35.0327C286.651 35.199 286.469 35.3442 286.237 35.4683C286.005 35.5924 285.704 35.6545 285.334 35.6545ZM285.595 34.6445C285.936 34.6445 286.224 34.5548 286.459 34.3752C286.696 34.1931 286.876 33.9409 286.997 33.6188C287.121 33.2967 287.183 32.9218 287.183 32.494C287.183 32.0716 287.123 31.702 287.001 31.3851C286.88 31.0683 286.702 30.8214 286.467 30.6445C286.232 30.4676 285.941 30.3792 285.595 30.3792C285.239 30.3792 284.942 30.4716 284.704 30.6564C284.467 30.8412 284.287 31.0934 284.166 31.4128C284.047 31.7323 283.987 32.0927 283.987 32.494C283.987 32.9006 284.048 33.2663 284.17 33.5911C284.291 33.9158 284.471 34.1733 284.708 34.3634C284.948 34.5508 285.244 34.6445 285.595 34.6445ZM292.66 35.6584C292.06 35.6584 291.544 35.5304 291.111 35.2743C290.681 35.0155 290.348 34.6525 290.113 34.1851C289.881 33.7152 289.765 33.1647 289.765 32.5336C289.765 31.9105 289.881 31.3614 290.113 30.8861C290.348 30.4109 290.675 30.0399 291.095 29.7732C291.518 29.5066 292.011 29.3732 292.576 29.3732C292.92 29.3732 293.252 29.43 293.575 29.5435C293.897 29.6571 294.186 29.8353 294.442 30.0782C294.698 30.3211 294.9 30.6366 295.048 31.0247C295.196 31.4102 295.27 31.8789 295.27 32.4307V32.8505H290.434V31.9633H294.109C294.109 31.6518 294.046 31.3759 293.919 31.1356C293.792 30.8927 293.614 30.7013 293.384 30.5614C293.157 30.4214 292.891 30.3515 292.584 30.3515C292.252 30.3515 291.961 30.4333 291.713 30.597C291.468 30.7581 291.277 30.9693 291.143 31.2307C291.011 31.4894 290.945 31.7706 290.945 32.0742V32.7673C290.945 33.1739 291.016 33.5198 291.159 33.8049C291.304 34.0901 291.506 34.3079 291.765 34.4584C292.023 34.6063 292.326 34.6802 292.672 34.6802C292.896 34.6802 293.101 34.6485 293.285 34.5851C293.47 34.5191 293.63 34.4214 293.765 34.2921C293.899 34.1627 294.002 34.003 294.074 33.8129L295.194 34.0148C295.105 34.3449 294.944 34.634 294.711 34.8822C294.481 35.1277 294.192 35.3191 293.844 35.4564C293.498 35.5911 293.103 35.6584 292.66 35.6584ZM296.583 35.5356V29.4524H297.728V30.4188H297.791C297.902 30.0914 298.098 29.834 298.378 29.6465C298.66 29.4564 298.98 29.3613 299.336 29.3613C299.41 29.3613 299.497 29.364 299.597 29.3693C299.7 29.3746 299.781 29.3812 299.839 29.3891V30.5218C299.791 30.5086 299.707 30.494 299.585 30.4782C299.464 30.4597 299.343 30.4505 299.221 30.4505C298.941 30.4505 298.692 30.5099 298.473 30.6287C298.256 30.7449 298.084 30.9072 297.958 31.1158C297.831 31.3218 297.768 31.5567 297.768 31.8208V35.5356H296.583ZM305.422 30.9376L304.349 31.1277C304.304 30.9904 304.233 30.8597 304.135 30.7356C304.04 30.6115 303.911 30.5099 303.747 30.4307C303.583 30.3515 303.379 30.3119 303.133 30.3119C302.798 30.3119 302.518 30.3871 302.293 30.5376C302.069 30.6854 301.957 30.8769 301.957 31.1119C301.957 31.3152 302.032 31.4789 302.182 31.6029C302.333 31.727 302.576 31.8287 302.911 31.9079L303.878 32.1297C304.437 32.2591 304.854 32.4584 305.129 32.7277C305.404 32.997 305.541 33.3469 305.541 33.7772C305.541 34.1416 305.435 34.4663 305.224 34.7515C305.016 35.034 304.724 35.2558 304.349 35.4168C303.977 35.5779 303.545 35.6584 303.054 35.6584C302.373 35.6584 301.817 35.5132 301.386 35.2228C300.956 34.9297 300.692 34.5139 300.594 33.9752L301.739 33.801C301.81 34.0993 301.957 34.3251 302.179 34.4782C302.4 34.6287 302.689 34.704 303.046 34.704C303.434 34.704 303.744 34.6234 303.977 34.4624C304.209 34.2987 304.325 34.0993 304.325 33.8643C304.325 33.6742 304.254 33.5145 304.111 33.3851C303.971 33.2558 303.756 33.1581 303.466 33.0921L302.436 32.8663C301.868 32.7369 301.448 32.531 301.177 32.2485C300.907 31.966 300.773 31.6082 300.773 31.1752C300.773 30.8161 300.873 30.502 301.074 30.2326C301.274 29.9633 301.551 29.7534 301.905 29.6029C302.259 29.4498 302.664 29.3732 303.121 29.3732C303.779 29.3732 304.296 29.5158 304.674 29.801C305.051 30.0835 305.301 30.4623 305.422 30.9376Z" fill="white"/>
</g>
<defs>
<linearGradient id="paint0_linear_25_255" x1="166.708" y1="267.585" x2="166.708" y2="329" gradientUnits="userSpaceOnUse">
<stop stop-color="#FFF4E2" stop-opacity="0"/>
<stop offset="1" stop-color="#FFF4E2"/>
</linearGradient>
<radialGradient id="paint1_angular_25_255" cx="0" cy="0" r="1" gradientUnits="userSpaceOnUse" gradientTransform="translate(383.688 2.23037) scale(682.04 383.648)">
<stop stop-color="#0052FF"/>
<stop offset="1" stop-color="white"/>
<stop offset="1" stop-color="white" stop-opacity="0"/>
</radialGradient>
<radialGradient id="paint2_radial_25_255" cx="0" cy="0" r="1" gradientUnits="userSpaceOnUse" gradientTransform="translate(-18.4238 240.776) rotate(90) scale(252.167 536.755)">
<stop offset="0.0709894" stop-color="white"/>
<stop offset="1" stop-color="white"/>
</radialGradient>
<radialGradient id="paint3_radial_25_255" cx="0" cy="0" r="1" gradientUnits="userSpaceOnUse" gradientTransform="translate(-91.4731 304.768) rotate(90) scale(222.747 476.115)">
<stop offset="0.0709894" stop-color="white"/>
<stop offset="1" stop-color="white"/>
</radialGradient>
<radialGradient id="paint4_radial_25_255" cx="0" cy="0" r="1" gradientUnits="userSpaceOnUse" gradientTransform="translate(44.5878 303.057) rotate(90) scale(246.763 526.548)">
<stop offset="0.0709894" stop-color="white"/>
<stop offset="1" stop-color="white"/>
</radialGradient>
<radialGradient id="paint5_radial_25_255" cx="0" cy="0" r="1" gradientUnits="userSpaceOnUse" gradientTransform="translate(105.598 395.927) rotate(-58.6745) scale(197.874 198.681)">
<stop offset="0.0709894" stop-color="white"/>
<stop offset="1" stop-color="#E8E8E8"/>
</radialGradient>
<clipPath id="clip0_25_255">
<rect x="0.535156" width="332.346" height="329" rx="28.9966" fill="white"/>
</clipPath>
</defs>
</svg>
