<svg width="393" height="75" viewBox="0 0 393 75" fill="none" xmlns="http://www.w3.org/2000/svg">
<rect width="393" height="74.9769" fill="white"/>
<path d="M81.982 12.6639L16.96 62.9769H307.313L379 12.6639L81.982 12.6639Z" fill="#0A0A0A" stroke="#0A0A0A" stroke-linejoin="round"/>
<path d="M79.022 6L14 56.313H305.99L377.677 6H79.022Z" fill="#FAE5C3" stroke="#0A0A0A" stroke-linejoin="round"/>
<path d="M164.575 28.189H161.653C161.57 27.7098 161.416 27.2853 161.192 26.9155C160.968 26.5405 160.689 26.2228 160.356 25.9624C160.023 25.702 159.643 25.5067 159.216 25.3765C158.794 25.241 158.338 25.1733 157.848 25.1733C156.979 25.1733 156.208 25.3921 155.536 25.8296C154.864 26.2619 154.338 26.8973 153.958 27.7358C153.578 28.5692 153.387 29.5874 153.387 30.7905C153.387 32.0145 153.578 33.0457 153.958 33.8843C154.343 34.7176 154.869 35.3478 155.536 35.7749C156.208 36.1968 156.976 36.4077 157.841 36.4077C158.32 36.4077 158.768 36.3452 159.184 36.2202C159.606 36.09 159.984 35.8999 160.317 35.6499C160.656 35.3999 160.939 35.0926 161.169 34.728C161.403 34.3634 161.564 33.9468 161.653 33.478L164.575 33.4937C164.466 34.2541 164.229 34.9676 163.864 35.6343C163.505 36.3009 163.033 36.8895 162.45 37.3999C161.867 37.9051 161.184 38.3009 160.403 38.5874C159.622 38.8687 158.755 39.0093 157.801 39.0093C156.395 39.0093 155.14 38.6838 154.036 38.0327C152.932 37.3817 152.062 36.4416 151.426 35.2124C150.791 33.9832 150.473 32.5093 150.473 30.7905C150.473 29.0666 150.794 27.5926 151.434 26.3687C152.075 25.1395 152.947 24.1994 154.051 23.5483C155.156 22.8973 156.406 22.5718 157.801 22.5718C158.692 22.5718 159.52 22.6968 160.286 22.9468C161.051 23.1968 161.734 23.564 162.333 24.0483C162.932 24.5275 163.424 25.116 163.809 25.814C164.2 26.5067 164.455 27.2983 164.575 28.189ZM172.339 39.0249C171.167 39.0249 170.151 38.7671 169.292 38.2515C168.432 37.7358 167.766 37.0145 167.292 36.0874C166.823 35.1603 166.589 34.077 166.589 32.8374C166.589 31.5978 166.823 30.5119 167.292 29.5796C167.766 28.6473 168.432 27.9233 169.292 27.4077C170.151 26.8921 171.167 26.6343 172.339 26.6343C173.51 26.6343 174.526 26.8921 175.385 27.4077C176.245 27.9233 176.909 28.6473 177.378 29.5796C177.852 30.5119 178.089 31.5978 178.089 32.8374C178.089 34.077 177.852 35.1603 177.378 36.0874C176.909 37.0145 176.245 37.7358 175.385 38.2515C174.526 38.7671 173.51 39.0249 172.339 39.0249ZM172.354 36.7593C172.99 36.7593 173.521 36.5848 173.948 36.2358C174.375 35.8817 174.693 35.4077 174.901 34.814C175.115 34.2202 175.221 33.5588 175.221 32.8296C175.221 32.0952 175.115 31.4312 174.901 30.8374C174.693 30.2384 174.375 29.7619 173.948 29.4077C173.521 29.0535 172.99 28.8765 172.354 28.8765C171.703 28.8765 171.161 29.0535 170.729 29.4077C170.302 29.7619 169.982 30.2384 169.768 30.8374C169.56 31.4312 169.456 32.0952 169.456 32.8296C169.456 33.5588 169.56 34.2202 169.768 34.814C169.982 35.4077 170.302 35.8817 170.729 36.2358C171.161 36.5848 171.703 36.7593 172.354 36.7593ZM183.317 31.7593V38.7905H180.489V26.7905H183.192V28.8296H183.333C183.609 28.1577 184.049 27.6239 184.653 27.228C185.262 26.8322 186.015 26.6343 186.911 26.6343C187.739 26.6343 188.46 26.8114 189.075 27.1655C189.695 27.5197 190.174 28.0327 190.512 28.7046C190.856 29.3765 191.025 30.1916 191.02 31.1499V38.7905H188.192V31.5874C188.192 30.7853 187.984 30.1577 187.567 29.7046C187.156 29.2515 186.585 29.0249 185.856 29.0249C185.361 29.0249 184.921 29.1343 184.536 29.353C184.156 29.5666 183.856 29.8765 183.637 30.2827C183.424 30.689 183.317 31.1812 183.317 31.7593ZM199.887 26.7905V28.978H192.989V26.7905H199.887ZM194.692 23.9155H197.52V35.1812C197.52 35.5614 197.578 35.853 197.692 36.0562C197.812 36.2541 197.968 36.3895 198.161 36.4624C198.354 36.5353 198.567 36.5718 198.801 36.5718C198.979 36.5718 199.14 36.5588 199.286 36.5327C199.437 36.5067 199.551 36.4832 199.63 36.4624L200.106 38.6733C199.955 38.7254 199.739 38.7827 199.458 38.8452C199.182 38.9077 198.843 38.9442 198.442 38.9546C197.734 38.9754 197.096 38.8687 196.528 38.6343C195.96 38.3947 195.51 38.0249 195.176 37.5249C194.848 37.0249 194.687 36.3999 194.692 35.6499V23.9155ZM202.253 38.7905V26.7905H205.081V38.7905H202.253ZM203.675 25.0874C203.227 25.0874 202.841 24.939 202.518 24.6421C202.195 24.34 202.034 23.978 202.034 23.5562C202.034 23.1291 202.195 22.7671 202.518 22.4702C202.841 22.1681 203.227 22.0171 203.675 22.0171C204.128 22.0171 204.513 22.1681 204.831 22.4702C205.154 22.7671 205.315 23.1291 205.315 23.5562C205.315 23.978 205.154 24.34 204.831 24.6421C204.513 24.939 204.128 25.0874 203.675 25.0874ZM210.817 31.7593V38.7905H207.989V26.7905H210.692V28.8296H210.833C211.109 28.1577 211.549 27.6239 212.153 27.228C212.762 26.8322 213.515 26.6343 214.411 26.6343C215.239 26.6343 215.96 26.8114 216.575 27.1655C217.195 27.5197 217.674 28.0327 218.012 28.7046C218.356 29.3765 218.525 30.1916 218.52 31.1499V38.7905H215.692V31.5874C215.692 30.7853 215.484 30.1577 215.067 29.7046C214.656 29.2515 214.085 29.0249 213.356 29.0249C212.861 29.0249 212.421 29.1343 212.036 29.353C211.656 29.5666 211.356 29.8765 211.137 30.2827C210.924 30.689 210.817 31.1812 210.817 31.7593ZM229.044 33.7437V26.7905H231.872V38.7905H229.13V36.6577H229.005C228.734 37.3296 228.288 37.8791 227.669 38.3062C227.054 38.7332 226.296 38.9468 225.395 38.9468C224.609 38.9468 223.913 38.7723 223.309 38.4233C222.71 38.0692 222.242 37.5562 221.903 36.8843C221.564 36.2072 221.395 35.3895 221.395 34.4312V26.7905H224.223V33.9937C224.223 34.7541 224.432 35.3582 224.848 35.8062C225.265 36.2541 225.812 36.478 226.489 36.478C226.906 36.478 227.309 36.3765 227.7 36.1733C228.091 35.9702 228.411 35.6681 228.661 35.2671C228.916 34.8608 229.044 34.353 229.044 33.7437ZM240.092 39.0249C238.889 39.0249 237.85 38.7749 236.975 38.2749C236.105 37.7697 235.436 37.0562 234.967 36.1343C234.499 35.2072 234.264 34.116 234.264 32.8608C234.264 31.6265 234.499 30.5431 234.967 29.6108C235.441 28.6733 236.103 27.9442 236.952 27.4233C237.801 26.8973 238.798 26.6343 239.944 26.6343C240.684 26.6343 241.382 26.7541 242.038 26.9937C242.699 27.228 243.283 27.5926 243.788 28.0874C244.298 28.5822 244.699 29.2124 244.991 29.978C245.283 30.7384 245.428 31.6447 245.428 32.6968V33.564H235.592V31.6577H242.717C242.712 31.116 242.595 30.6343 242.366 30.2124C242.137 29.7853 241.816 29.4494 241.405 29.2046C240.999 28.9598 240.525 28.8374 239.983 28.8374C239.405 28.8374 238.897 28.978 238.46 29.2593C238.022 29.5353 237.681 29.8999 237.436 30.353C237.197 30.8009 237.074 31.2931 237.069 31.8296V33.4937C237.069 34.1916 237.197 34.7905 237.452 35.2905C237.707 35.7853 238.064 36.1655 238.522 36.4312C238.98 36.6916 239.517 36.8218 240.132 36.8218C240.543 36.8218 240.915 36.7645 241.249 36.6499C241.582 36.5301 241.871 36.3556 242.116 36.1265C242.361 35.8973 242.546 35.6134 242.671 35.2749L245.311 35.5718C245.145 36.2697 244.827 36.8791 244.358 37.3999C243.895 37.9155 243.301 38.3166 242.577 38.603C241.853 38.8843 241.025 39.0249 240.092 39.0249Z" fill="#0A0A0A"/>
</svg>
