<svg width="146" height="170" viewBox="0 0 146 170" fill="none" xmlns="http://www.w3.org/2000/svg">
<circle cx="73" cy="73" r="73" fill="#0052FF"/>
<path d="M73.0912 97.3333C59.6218 97.3333 48.712 86.4442 48.712 73C48.712 59.5558 59.6218 48.6667 73.0912 48.6667C85.1588 48.6667 95.1745 57.4469 97.1045 68.9444H121.666C119.594 43.9622 98.6484 24.3333 73.0912 24.3333C46.1725 24.3333 24.333 46.1319 24.333 73C24.333 99.8681 46.1725 121.667 73.0912 121.667C98.6484 121.667 119.594 102.038 121.666 77.0556H97.0842C95.1542 88.5531 85.1588 97.3333 73.0912 97.3333Z" fill="white"/>
<rect y="123" width="145.158" height="46.1053" rx="23.0526" fill="#212121"/>
<path d="M38.4208 146.053C38.4208 149.11 37.2064 152.041 35.0448 154.203C32.8832 156.365 29.9515 157.579 26.8945 157.579C23.8375 157.579 20.9057 156.365 18.7441 154.203C16.5825 152.041 15.3682 149.11 15.3682 146.053C15.3682 142.996 16.5825 140.064 18.7441 137.902C20.9057 135.741 23.8375 134.526 26.8945 134.526C29.9515 134.526 32.8832 135.741 35.0448 137.902C37.2064 140.064 38.4208 142.996 38.4208 146.053ZM29.0509 138.718H26.0478C25.8347 138.718 25.6266 138.783 25.4514 138.904C25.2761 139.025 25.1421 139.197 25.067 139.397L22.7094 145.684C22.6497 145.843 22.6294 146.013 22.6503 146.182C22.6712 146.35 22.7326 146.511 22.8292 146.65C22.9259 146.789 23.0549 146.903 23.2052 146.982C23.3556 147.06 23.5227 147.101 23.6923 147.1H25.3227L23.7027 151.956C23.6176 152.207 23.6271 152.48 23.7295 152.725C23.8319 152.969 24.0202 153.168 24.2588 153.283C24.4974 153.398 24.7699 153.422 25.0249 153.35C25.2799 153.278 25.4999 153.116 25.6433 152.893L31.1445 144.428C31.2404 144.28 31.2946 144.108 31.3014 143.932C31.3082 143.755 31.2673 143.58 31.1831 143.425C31.0989 143.269 30.9744 143.139 30.8227 143.049C30.671 142.958 30.4977 142.91 30.3209 142.909H28.9902L30.0317 140.132C30.0909 139.974 30.1109 139.803 30.0899 139.636C30.0689 139.468 30.0077 139.308 29.9113 139.169C29.8149 139.03 29.6863 138.916 29.5365 138.837C29.3867 138.759 29.2201 138.718 29.0509 138.718Z" fill="#F3AFC6"/>
<path d="M60.6046 138.581V152.553H58.4898V140.696H58.4079L55.0652 142.879V140.86L58.5512 138.581H60.6046ZM64.3839 152.553V151.025L69.1115 146.126C69.6163 145.594 70.0325 145.128 70.3599 144.728C70.6919 144.323 70.9398 143.939 71.1035 143.575C71.2672 143.211 71.3491 142.825 71.3491 142.415C71.3491 141.951 71.2399 141.551 71.0216 141.215C70.8033 140.874 70.5054 140.612 70.128 140.43C69.7505 140.244 69.3252 140.15 68.8523 140.15C68.352 140.15 67.9154 140.253 67.5425 140.457C67.1695 140.662 66.883 140.951 66.6829 141.324C66.4828 141.697 66.3827 142.133 66.3827 142.634H64.3703C64.3703 141.783 64.5658 141.04 64.9569 140.403C65.3481 139.766 65.8847 139.273 66.5669 138.922C67.2491 138.568 68.0245 138.39 68.8932 138.39C69.7709 138.39 70.5441 138.565 71.2126 138.916C71.8857 139.261 72.411 139.734 72.7885 140.335C73.166 140.93 73.3547 141.603 73.3547 142.354C73.3547 142.872 73.2569 143.379 73.0614 143.875C72.8704 144.371 72.5361 144.923 72.0586 145.533C71.581 146.138 70.917 146.872 70.0666 147.736L67.29 150.642V150.745H73.5798V152.553H64.3839ZM81.0294 152.785C79.9515 152.78 79.0306 152.496 78.2665 151.932C77.5025 151.368 76.918 150.547 76.5133 149.469C76.1085 148.391 75.9061 147.093 75.9061 145.574C75.9061 144.059 76.1085 142.765 76.5133 141.692C76.9226 140.619 77.5093 139.8 78.2733 139.236C79.0419 138.672 79.9606 138.39 81.0294 138.39C82.0982 138.39 83.0146 138.675 83.7786 139.243C84.5427 139.807 85.1271 140.626 85.5319 141.699C85.9412 142.768 86.1458 144.059 86.1458 145.574C86.1458 147.097 85.9434 148.398 85.5387 149.476C85.1339 150.549 84.5495 151.37 83.7854 151.939C83.0214 152.503 82.1027 152.785 81.0294 152.785ZM81.0294 150.963C81.9754 150.963 82.7144 150.502 83.2465 149.578C83.7832 148.655 84.0515 147.32 84.0515 145.574C84.0515 144.414 83.9287 143.434 83.6831 142.634C83.4421 141.829 83.0942 141.219 82.6394 140.805C82.1891 140.387 81.6525 140.178 81.0294 140.178C80.088 140.178 79.3489 140.642 78.8123 141.569C78.2756 142.497 78.005 143.832 78.0005 145.574C78.0005 146.738 78.121 147.723 78.362 148.528C78.6076 149.328 78.9555 149.935 79.4058 150.349C79.856 150.758 80.3972 150.963 81.0294 150.963ZM93.4299 152.785C92.3521 152.78 91.4311 152.496 90.6671 151.932C89.903 151.368 89.3186 150.547 88.9138 149.469C88.5091 148.391 88.3067 147.093 88.3067 145.574C88.3067 144.059 88.5091 142.765 88.9138 141.692C89.3231 140.619 89.9098 139.8 90.6739 139.236C91.4425 138.672 92.3612 138.39 93.4299 138.39C94.4987 138.39 95.4151 138.675 96.1792 139.243C96.9432 139.807 97.5276 140.626 97.9324 141.699C98.3417 142.768 98.5464 144.059 98.5464 145.574C98.5464 147.097 98.344 148.398 97.9392 149.476C97.5345 150.549 96.95 151.37 96.186 151.939C95.4219 152.503 94.5032 152.785 93.4299 152.785ZM93.4299 150.963C94.3759 150.963 95.1149 150.502 95.6471 149.578C96.1837 148.655 96.452 147.32 96.452 145.574C96.452 144.414 96.3292 143.434 96.0837 142.634C95.8426 141.829 95.4947 141.219 95.0399 140.805C94.5897 140.387 94.053 140.178 93.4299 140.178C92.4885 140.178 91.7495 140.642 91.2128 141.569C90.6762 142.497 90.4055 143.832 90.401 145.574C90.401 146.738 90.5215 147.723 90.7626 148.528C91.0082 149.328 91.3561 149.935 91.8063 150.349C92.2566 150.758 92.7978 150.963 93.4299 150.963ZM107.708 138.581L111.051 144.046H111.16L114.503 138.581H116.945L112.593 145.567L116.972 152.553H114.516L111.16 147.163H111.051L107.695 152.553H105.239L109.693 145.567L105.266 138.581H107.708ZM119.036 152.553V138.581H124.016C125.103 138.581 126.003 138.779 126.717 139.175C127.432 139.571 127.966 140.112 128.321 140.798C128.675 141.481 128.853 142.249 128.853 143.104C128.853 143.964 128.673 144.737 128.314 145.424C127.959 146.106 127.422 146.647 126.704 147.047C125.99 147.443 125.092 147.641 124.009 147.641H120.585V145.854H123.818C124.505 145.854 125.062 145.735 125.49 145.499C125.917 145.258 126.231 144.93 126.431 144.516C126.631 144.103 126.731 143.632 126.731 143.104C126.731 142.577 126.631 142.108 126.431 141.699C126.231 141.29 125.915 140.969 125.483 140.737C125.055 140.505 124.491 140.389 123.791 140.389H121.144V152.553H119.036Z" fill="white"/>
</svg>
