<svg width="24" height="24" viewBox="0 0 24 24" fill="none" xmlns="http://www.w3.org/2000/svg">
<path d="M15.2531 2C15.8066 2.00002 16.3406 2.20401 16.7531 2.57297C17.1656 2.94194 17.4276 3.44999 17.4891 4H18.7571C19.1961 4.00027 19.619 4.16553 19.9419 4.46302C20.2647 4.7605 20.464 5.16847 20.5001 5.606L20.5061 5.75V8.75C20.5062 9.58014 20.1886 10.3788 19.6184 10.9822C19.0483 11.5856 18.2689 11.948 17.4401 11.995L17.2301 12.001C16.8968 13.04 16.2752 13.9629 15.4376 14.6623C14.6 15.3616 13.5809 15.8085 12.4991 15.951V17.5H14.2521C15.0821 17.5002 15.8805 17.8179 16.4837 18.388C17.0869 18.9581 17.4491 19.7374 17.4961 20.566L17.5021 20.75V21.25C17.5021 21.4314 17.4363 21.6066 17.317 21.7432C17.1976 21.8798 17.0329 21.9686 16.8531 21.993L16.7521 22H6.75012C6.56871 22.0002 6.39336 21.9347 6.25656 21.8156C6.11977 21.6964 6.03079 21.5317 6.00612 21.352L6.00012 21.25V20.75C6.00005 19.92 6.31752 19.1215 6.88743 18.5181C7.45733 17.9147 8.23649 17.5522 9.06512 17.505L9.25012 17.5H11.0001V15.951C9.91866 15.8082 8.90002 15.3611 8.06281 14.6618C7.2256 13.9625 6.60425 13.0397 6.27112 12.001L6.24512 12C5.38316 12 4.55651 11.6576 3.94702 11.0481C3.33753 10.4386 2.99512 9.61195 2.99512 8.75V5.75C2.99512 4.784 3.77912 4 4.74512 4H6.01312C6.07463 3.44982 6.33682 2.94163 6.74953 2.57264C7.16225 2.20365 7.69651 1.99977 8.25012 2H15.2531ZM18.7571 5.5H17.5031V10.483C17.8942 10.4274 18.255 10.2411 18.5268 9.95443C18.7986 9.66775 18.9654 9.29753 19.0001 8.904L19.0071 8.75V5.75C19.007 5.69368 18.9879 5.63904 18.9529 5.59493C18.9179 5.55083 18.869 5.51984 18.8141 5.507L18.7571 5.5ZM6.00012 5.5H4.74512C4.67881 5.5 4.61522 5.52634 4.56834 5.57322C4.52146 5.62011 4.49512 5.6837 4.49512 5.75V8.75C4.49506 9.17172 4.6473 9.57928 4.92382 9.8977C5.20034 10.2161 5.58255 10.424 6.00012 10.483V5.5Z" fill="white"/>
</svg>
