<svg width="12" height="12" viewBox="0 0 12 12" fill="none" xmlns="http://www.w3.org/2000/svg">
<g clip-path="url(#clip0_25_768)">
<rect width="12" height="12" rx="6" fill="white"/>
<path d="M12 6C12 7.5913 11.3679 9.11742 10.2426 10.2426C9.11742 11.3679 7.5913 12 6 12C4.4087 12 2.88258 11.3679 1.75736 10.2426C0.63214 9.11742 0 7.5913 0 6C0 4.4087 0.63214 2.88258 1.75736 1.75736C2.88258 0.632141 4.4087 0 6 0C7.5913 0 9.11742 0.632141 10.2426 1.75736C11.3679 2.88258 12 4.4087 12 6ZM7.12254 2.18182H5.55927C5.44833 2.18182 5.34002 2.21565 5.2488 2.2788C5.15757 2.34196 5.08778 2.43143 5.04873 2.53527L3.82146 5.808C3.79038 5.89062 3.77983 5.97955 3.79069 6.06715C3.80156 6.15475 3.83352 6.2384 3.88384 6.31093C3.93416 6.38345 4.00133 6.44268 4.07958 6.48353C4.15783 6.52438 4.24482 6.54563 4.33309 6.54545H5.18182L4.33855 9.07309C4.29421 9.20369 4.29916 9.34599 4.35248 9.47319C4.40579 9.60039 4.50378 9.7037 4.62798 9.76365C4.75219 9.82361 4.89403 9.83607 5.02679 9.79869C5.15955 9.76132 5.27405 9.67668 5.34873 9.56073L8.21236 5.15455C8.26228 5.07726 8.29048 4.98797 8.29401 4.89603C8.29754 4.80409 8.27627 4.7129 8.23243 4.63202C8.18858 4.55113 8.12378 4.48353 8.04482 4.43631C7.96585 4.38909 7.87564 4.36399 7.78364 4.36364H7.09091L7.63309 2.91818C7.66391 2.83571 7.6743 2.74699 7.66338 2.65963C7.65246 2.57226 7.62056 2.48884 7.57039 2.41648C7.52022 2.34413 7.45329 2.28499 7.3753 2.24413C7.29731 2.20326 7.21059 2.18188 7.12254 2.18182Z" fill="#F3AFC6"/>
</g>
<defs>
<clipPath id="clip0_25_768">
<rect width="12" height="12" rx="6" fill="white"/>
</clipPath>
</defs>
</svg>
